<svg xmlns="http://www.w3.org/2000/svg" viewBox="0 0 2051.5 409.713"><defs><style>.a{fill:#2e2e50;}.b{fill:#86aaaa;}.c{fill:#9ec9c8;}.d{fill:#e6dccb;}.e{fill:#ffb052;}.f{fill:#f94e37;}.g{fill:#84af97;}.h{fill:#190fa0;}</style></defs><title>2c</title><path d="M1381.55,262.363a1.039,1.039,0,0,1-1.05-.6,1.543,1.543,0,0,1-.1-.65q1.4-3.6,1.85-4.85a2.252,2.252,0,0,1-.4.4.747.747,0,0,1-.35.2q-4.216,10.367-3.9,12.5a.7.7,0,0,0,.35.6h.35q1.629-3.743,3.25-7.6m33.3,28.6v.1q.1.6.3.6a3.291,3.291,0,0,0,.55.05q.4-.6.9-1.5-.9.4-1.75.75m-8.3,2.55c.067-.033.1-.15.1-.35a11.007,11.007,0,0,0,1.25-1.25,2.791,2.791,0,0,0-.55-.25q-.5-.3-.85-.5a3.4,3.4,0,0,0-.25,1.3q.15,1.05.3,1.05m27.1-9.6a10.322,10.322,0,0,1,1,.65,11.932,11.932,0,0,0,1.2-1.45,2.664,2.664,0,0,1-1.35.65,1.23,1.23,0,0,1-1.2-.4.916.916,0,0,0,.35.55m96.6-47.35.05-.05h-.15a.15.15,0,0,1,.1.05m-20-1.8a3.7,3.7,0,0,0-.55.45,2.616,2.616,0,0,1-.5.4q.6.45,1,.7l.25-.25a8.114,8.114,0,0,1,1.35-.45q-.7-.35-1.55-.85m6.7.25v-.05a.653.653,0,0,1-.1.15l.1-.1m-16.55,5.25.5-.1a2.616,2.616,0,0,1-.5-.4,1.275,1.275,0,0,1,0,.5m-2.1-202.9-.55.05v.05a39.617,39.617,0,0,0-4.9,1.1.57.57,0,0,1-.1-.15,19.072,19.072,0,0,0-5.65-4.7,7.187,7.187,0,0,0-.7-.55,23.075,23.075,0,0,0-12.35-5.15,19.684,19.684,0,0,0-12.1.1q-.851.351-1.75.75a16.741,16.741,0,0,0-5.4,2.35,21.484,21.484,0,0,0-3.65,2.8q-7.95,4.7-9.5,14.95a43.441,43.441,0,0,0-.15,11.7q.049.251,1.4,9.9.1.6.25,2.9.3,1.4.55,3.25.049.251.4,4.75a18.879,18.879,0,0,0,.6,1.8,28.526,28.526,0,0,0,4.55,7.05,3.9,3.9,0,0,1,.35.4,9.051,9.051,0,0,0-.05,2.1,7.924,7.924,0,0,0,.4,1.7,2.179,2.179,0,0,0,1.15,1.45q-.1.351-.15.6a65,65,0,0,1-3.7,7.7q-1.761,3.233-3.7,6.3-2.1,3.294-4.4,6.4a149.21,149.21,0,0,0-8.4,12.85q-2.5,4.2-6.85,12.3-4.9,8.751-11.85,23.1-2.418,5.043-4.25,9.15-6.129,13.75-5.7,17.05h0c-.014.157-.031.323-.05.5a18.609,18.609,0,0,0-.05,3.2,90.15,90.15,0,0,0-.3,11.45q0,.051.35,10.2a52.487,52.487,0,0,0,.95,8.3,18.3,18.3,0,0,1-.6,4.05,76.165,76.165,0,0,0-1.9,8.15q-.046.291-.15.7-.589,1.827-2,5.6a21.711,21.711,0,0,0-1.7,7.15v1.05a1.07,1.07,0,0,0,1.15.95.617.617,0,0,0,.25-.05h.15a.5.5,0,0,0,.3-.1,2.808,2.808,0,0,1-.1-.75,64.966,64.966,0,0,1,1.7-7.7q1.9-7.25,2.2-8.65.6-2.7.95-4.05a22.678,22.678,0,0,1,1.25-4.05q.376-.87.75-1.65h0q0-.849-.6-6.65-.443-4.083-.65-5.75-.055-2.2-.15-4l-.05-10.25q.05-1,.05-1.7.023-.855,0-1.5l.15-1.75q.336-1.493.45-2.4,15.15,1.6,25.15,6.1,3.2,1.551,8.2,4.4,3.551,2.1,5.95,3.4a2.029,2.029,0,0,0,.4.25q.2.564.35,1.2a1.444,1.444,0,0,1,.05.3q-.99,5.577-3.9,21.65-.41,2.415-.8,4.65a3.254,3.254,0,0,1,.35,1.75,29.783,29.783,0,0,1-.65,5.6q-.851,4.5-.95,5.35a17.88,17.88,0,0,1-1.1,5.1,1,1,0,0,1-.1.15,42.262,42.262,0,0,0-.2,8.35,1.359,1.359,0,0,0,.55,1,36.813,36.813,0,0,0,2.9-10.7q.5-6.95.75-10.2.1-1.65,2.3-10.9,1.9-8.25,1.6-10.35a11.9,11.9,0,0,1,.2-2.7,16.49,16.49,0,0,0,.25-2.3q.1-1.749.2-3a.9.9,0,0,1,.15-.45q.551-1.549.8-2.3c.033-.133.067-.25.1-.35a.752.752,0,0,0,.15-.2q.75-1.95,1.9-5,.4-.849,2.75-4.9a24,24,0,0,0,1.8-3.95q.2.4.4.85,1.1,1.7,2.8,4.15a16.5,16.5,0,0,1,1.25,2.4l.05.05a.044.044,0,0,1,.05-.05.383.383,0,0,0,.05.15l.3.5a46.537,46.537,0,0,0,3.85,6.3q.45.7,4.35,6.1a17.26,17.26,0,0,0,2.3,2.6q3.15,4.551,4.5,6.45a11.2,11.2,0,0,0,.85,1.15q1.65,1.5,3.85,3.6a21.407,21.407,0,0,0,4.65,4.35q1.3.75,3.75,1.85a4.455,4.455,0,0,0,1.25.7,11.764,11.764,0,0,1,1.15.25.342.342,0,0,1,.25.1q1.151.4,2.1.75a2.445,2.445,0,0,0,1.05.4.443.443,0,0,0,.3,0,8.853,8.853,0,0,0,3.45.6q1.35-.2,1.6-.6a1.655,1.655,0,0,1,.2-.25,4.342,4.342,0,0,1,.7-.05c.1.034.233.084.4.15a3.313,3.313,0,0,0,1.4.1q.851-.15,1.05-.6l1.2-.2h.2q.049.051.15,0a10.91,10.91,0,0,0,3.85.05,3.078,3.078,0,0,1,.75-.9l1.05-.9c-.067-.066-.117-.1-.15-.1a3.906,3.906,0,0,0-2.25-2.2q-4.6-2.349-4.95-2.55a28.3,28.3,0,0,1-3.9-2.75q-5.6-5.4-9.6-9.7-.851-.8-2.05-2.05a39.36,39.36,0,0,1-4.15-5.2l-.1-.2q-2-2.5-3.75-5a49.238,49.238,0,0,1-4.45-7.6q-1.849-3.049-1.95-3.2-.3-.549-.8-1.55a5.427,5.427,0,0,0,.2.65q-1.059-2.115-2.05-3.9a15.083,15.083,0,0,1-1.2-3.55,29.076,29.076,0,0,0-.9-3.5q-1.3-3.649-2.3-6.5-1.35-3.849-1.9-6.05a1.237,1.237,0,0,0,.15.3,2.361,2.361,0,0,1-.1-.65,151.185,151.185,0,0,0,12-26.45q.2-.7.45-1.35,1.3-.75,2.2-1.25l.4-.2a1.955,1.955,0,0,1,.45-.25,9.6,9.6,0,0,1,.9-.55q1.5-.9,2.5-1.6,5.85-3.249,14.85-11.7,2.05-1.8,3.9-3.75l.2-.2a.33.33,0,0,1,.15-.15q6.15-6.1,11.5-12.25,6-6.549,9.55-17.2a63.512,63.512,0,0,0,2.05-9.45,61.775,61.775,0,0,0,.95-6.95,23.8,23.8,0,0,0,0-8.5q-1.75-12.5-4.6-18.1-5.85-11.6-19.15-11.65-1.3.251-2.5.5m-29.2,7.15q1.1-.45,3.15-1.5a44.31,44.31,0,0,1,7.4-3,28.518,28.518,0,0,0,6.15-2.35,3.5,3.5,0,0,0,1.25-1.15q.45.15.85.3l.2.1a7.774,7.774,0,0,1,.7.5,4.2,4.2,0,0,1,1.25,1.15q.3.351.6.75-1.85.85-1.9,1.5a.616.616,0,0,1-.15.25.2.2,0,0,1,.15.05.291.291,0,0,0,.05.2,1.1,1.1,0,0,0,.35.15.044.044,0,0,0,.05.05h.2a.831.831,0,0,1,.25.05l2.35-.3a19.185,19.185,0,0,1,1.1,1.75,4.167,4.167,0,0,0-2.5,1.1,1.936,1.936,0,0,0-.55,1.65.535.535,0,0,0,.55.5.617.617,0,0,0,.2-.15q.12-.226.3-.55l.5-.85h.05a.631.631,0,0,0,.1-.15h.05a1.315,1.315,0,0,1,.3-.15h.05l1.55-.2q.25.45.55,1,.2.351.45.8.35.75.85,1.95a.435.435,0,0,1-.2.05,2.247,2.247,0,0,0-1.5.65,4.782,4.782,0,0,0-.45.7,1.745,1.745,0,0,0-.3.45,2.718,2.718,0,0,0-.2.6h.3a6.592,6.592,0,0,0,.8-.5,3.589,3.589,0,0,1,1.25-.55.628.628,0,0,0,0,.35,5.046,5.046,0,0,0,.15.55.958.958,0,0,0,1.05.4,1.822,1.822,0,0,0,.25-.1,3.625,3.625,0,0,1,.15.7v.05a.953.953,0,0,0,.05.3q.55,1.7,1.05,3.9a1.572,1.572,0,0,0-.65,1.15,8.364,8.364,0,0,0,.05,2,2.98,2.98,0,0,0,.3,1,1.4,1.4,0,0,0,1.25.6q.55,2.85,1.1,6.3l-.05-.05q.15.75.3,1.8.25,1.8.3,2.95l.1-.2c.033.234.067.484.1.75a1.119,1.119,0,0,0-.05.35,42.823,42.823,0,0,1-.35,4.85q-.25.6-.4.9l-.7,2.15a3.712,3.712,0,0,0-.3.85,5.065,5.065,0,0,1-.45,1.05,32.935,32.935,0,0,1-4.25,6.25q-3.95,4.6-7.25,5.05a23.493,23.493,0,0,1-9.3-.45,18.866,18.866,0,0,1-9.6-4.05v.05c.033.034.117.134.25.3a7.774,7.774,0,0,1-.75-.75,16.491,16.491,0,0,1-1.85-1.75,6.133,6.133,0,0,0-.95-.4.287.287,0,0,1-.05.15l.15.35a.555.555,0,0,0,.2.2,19.539,19.539,0,0,0,3.7,3.8,27.087,27.087,0,0,0,7.3,3.8q.8.15,1.55.3.649.251,1.35.45a14.4,14.4,0,0,0,5.75.5l1.7-.3q-.2.5-.4,1.05-.2.8-.45,2.05a5.687,5.687,0,0,0-.35.9,69.52,69.52,0,0,0-2.8,9.85,74.592,74.592,0,0,1-2.85,9q-.2.75-.4,1.4v.05l-.15.3q-.049,0-.85,2.45-.35.951-.55,1.65a.953.953,0,0,0-.3-.05q-2.95-.1-4.95-.35a12.039,12.039,0,0,1-3.25-.6q-1.2-.45-2.4-.8-4.65-1.3-5.7-1.6a19,19,0,0,1-4.2-2.1q-3.2-2.2-3.7-2.55a33.306,33.306,0,0,1-3.05-2.5q-.153-.091-1.5-1.35-.72-.686-1.8-1.7-.185-.194-.4-.4a.547.547,0,0,1-.15-.1q1.25-2,2.5-4.2a72.559,72.559,0,0,0,3.55-7.15,36.563,36.563,0,0,1,2.85-5.5q.55-1.6.95-2.8.3-.6.6-1.15,2.25-4.149,1.85-7.2a7.37,7.37,0,0,0-1.4-3.1q.649-1.549,1.65-3.75a9.8,9.8,0,0,1,.3-1.25,1.131,1.131,0,0,0,.45.25q1.6-1.449,2.7-9.7.15-1.5.3-2.75a18.743,18.743,0,0,0,.95-4.15q.25-1.35.4-2.45a.953.953,0,0,1,.05-.3q.8-3.2,1.25-4.7.1-.5.3-1.5.45-.949.7-1.55a22.545,22.545,0,0,0,2.2-1.9l.7-.7m28.8-5.65a.824.824,0,0,1,.45-.1h.25q1.1-.2,2.4-.4,3.3-.5,9.2,3.45a31.816,31.816,0,0,1,6.4,5.2,24.529,24.529,0,0,1,2.95,6.2,33.507,33.507,0,0,1,1.8,6.8c.033.267.067.5.1.7a32.028,32.028,0,0,1,1.3,5.6,36.541,36.541,0,0,1-1.25,15.65q-.95,3.2-1.65,5.5a25.309,25.309,0,0,1-.7,3.05q-.3.7-.55,1.35-.949,2.8-1.75,4.75a31.133,31.133,0,0,1-3.8,6.9,4.671,4.671,0,0,0-.85,1.1,4.5,4.5,0,0,1-.35.5,5.816,5.816,0,0,1-.45.5.616.616,0,0,1-.15.25v-.1a.467.467,0,0,1,0-.3,54.25,54.25,0,0,1-4,5.2q-2.75,3.2-8.15,8.55-5.781,5.667-8.35,8.2c-.061.047-.127.1-.2.15q-.918.666-1.65,1.25l-.55.1a108.752,108.752,0,0,1-12.5,8.9q3.6-11,5.7-17.6,2.75-1.749,6.1-4.35,1.549-1.65,2.7-2.85,1.7-1.6,3.9-4,2.651-3.1,4-4.95.75-.849,1.6-1.75,2.45-3,4-5.1a12.322,12.322,0,0,0,.9-1,21.317,21.317,0,0,0,2.8-3.95,17.354,17.354,0,0,0,.9-2.45,14.736,14.736,0,0,0,.95-2.3q1.8-7.1,2.45-11.55l.1-.6q0-1.6-.05-4.05a107.758,107.758,0,0,0-1-12.7,7.474,7.474,0,0,1-.05-1.9,10.189,10.189,0,0,0,0-2.5,42.042,42.042,0,0,0-2.45-6.35,42.422,42.422,0,0,0-2.6-4.45q-.3-.2-.55-.4a10.892,10.892,0,0,1-1.5-1.8l-.7-.7a1.3,1.3,0,0,0,.8-.3c.067-.033.083-.133.05-.3a.637.637,0,0,0-.5-.5,14.911,14.911,0,0,0-2.1-.1l-2.35.35a6.492,6.492,0,0,1-.75.15l-5.45.6-1.65.4a1.415,1.415,0,0,1-1-.1l-.05-.2a.485.485,0,0,1,.35-.45q.049-.05,2.2-.55v-.05l4.25-.4q.551-.1,1.05-.2m2.8,1.9q.5.051.9.1.75,1.2,2.95,4.35,3.2,4.45,3.45,6.4a.57.57,0,0,0,.1.15,13.407,13.407,0,0,1,.95,3.6,3.41,3.41,0,0,1,.05.55c.033.2.067.45.1.75a5.669,5.669,0,0,1,.1.7q.15.55.35,1.25.049.5.15,3.25c.033.234.067.484.1.75q.049.3.35,8.2a8.226,8.226,0,0,1-.05.9.145.145,0,0,1,.1-.05,76.539,76.539,0,0,1-.5,7.7,36.6,36.6,0,0,1-1.3,5.4q-.15.4-.35,1a61.079,61.079,0,0,1-3.6,6.35,89.326,89.326,0,0,1-6.9,9.75q-1.2,1.451-2.35,2.9v.05h-.05a50.739,50.739,0,0,1-4.4,6.2q-1.65,1.65-3.5,3.25a15.658,15.658,0,0,1-1.25.95q-.349.251-3.65,2.2a66.773,66.773,0,0,0,1.85-6.85q.35-1.149.75-2.85.5-2.5.85-3.6.55-1.5,1.15-3.3a16.057,16.057,0,0,0,.75-3.2q.45-1.8.7-2.85a18.039,18.039,0,0,0,4.35-2.4,7.326,7.326,0,0,1,.6-.45,5.469,5.469,0,0,0,1.4-1.05q.5-.35,1.35-1.05a20.2,20.2,0,0,0,1.75-1.95,14.893,14.893,0,0,0,1.85-3.05,1.287,1.287,0,0,0,.2-.35q.4-.6.85-1.2.45-1.35.85-2.75a25.984,25.984,0,0,0,1.1-11,4.428,4.428,0,0,0-.25-1.15q-1.8-12.7-4.2-19.45a43.92,43.92,0,0,0-3.35-7.3l.15.15h.05q-.4-.349-.8-.75a.808.808,0,0,1,.4,0l.4-.05a34.375,34.375,0,0,1,5.5-.2m-46.9,30.2q-.35-1.5-.35-1.55-.551-3.849.9-4.5,1.05-.4,1.6,1.45a7.809,7.809,0,0,1,.45.8,16.811,16.811,0,0,1,1.15,4.25,5.454,5.454,0,0,0,.1.6,2.129,2.129,0,0,1-.4.65l-1,.15a5.2,5.2,0,0,1-1.7-.7l-.45-.6c-.033-.066-.067-.133-.1-.2a.741.741,0,0,0-.2-.35m-8.3,40.45v-.05c-.033-.033-.033-.05,0-.05h.05a26.594,26.594,0,0,0,3.05,2.9q2.634,2.3,7.1,5.65a50.824,50.824,0,0,0,9.5,3.75q7.65,2.55,12.05,2.5-1.7,5.2-4.25,14.45a134.02,134.02,0,0,1-9,21q-1.1,2.151-2.05,3.95a1.666,1.666,0,0,0-.05-.4q-.05-1.149-.15-2.65-.2-3.2-.5-5.4-.349-2.4-1.1-6.3a.562.562,0,0,0-.05-.25v-.7l-1.25-6.85q-.2-.949-.35-1.85a2.831,2.831,0,0,1-.15-.9.57.57,0,0,0,.1-.15.918.918,0,0,0,.35-.5.54.54,0,0,0,.1-.2,5.51,5.51,0,0,0-.05-1.2l-.75-4.85q-.15-2.149-.25-3.6-.55-2.5-.9-3.9a10.618,10.618,0,0,0-.8-2.25q-.3-.4-.65-.8a5.109,5.109,0,0,0,.1,1.3q.05.4.65,4.15l.6,4.35v.7q.2,1.2.4,2.45l.35,2.4h-.1a1.106,1.106,0,0,1-.35.05.5.5,0,0,0,.25-.1,4.671,4.671,0,0,0-1.35.3.549.549,0,0,1-.25.05q-1.9.25-5.25,2.65-.6.3-1.25.7a3.8,3.8,0,0,0-.65.25h-.05a.508.508,0,0,0-.25.15,4.824,4.824,0,0,0-.95.4,19.612,19.612,0,0,0-4.5,2.45q-.05-.7-.15-1.4-.049-.5-.65-2.95-.55-2.45-.85-4.55a42.231,42.231,0,0,1-.6-4.9q0-.649.2-2.6a11.506,11.506,0,0,0,.1-2.5q-.251-1.549-.8-.6a3.024,3.024,0,0,0-.45,1.65q-.05.2-.2,1.55a9.192,9.192,0,0,0-.05,1.6q.3,4.6.55,6.1.15,1.15.35,2.25.3,4.2.8,7.8.15,1.05.15,1.2.05.1.35.6.3,2.05.75,5.25.1.5.2,1.1.35,1.95,1,5.75.4,1.8,1,4.4l.85,3.55q.6,2.55,1.4,5.9,1.064,4.326,1.75,7.25.282,1.226.5,2.2.35.9.65,1.8a.044.044,0,0,0,.05.05v.15a15.844,15.844,0,0,1,.55,1.5q.45,1.15,2.3,4.7-.35.55-.85,1.55-.8,1.551-1.3,2.55-.4.8-1.5,2.75t-1.4,2.6a1.166,1.166,0,0,0-.15.45q-.35,1.1-.95,2.5h-.05l-.1.05a.451.451,0,0,0-.05.2,28.5,28.5,0,0,0-5.75-3.85,120.055,120.055,0,0,0-13.85-6.3q-16.55-6.35-22.3-4.2c-.033-.066-.067-.1-.1-.1l-.05.15a.556.556,0,0,0-.2.1q1.587-4.083,3.75-9.05,2.474-5.649,5.7-12.45,3.8-8.149,11.5-24.35a131.076,131.076,0,0,1,14.85-24.85q2.8-3.75,5.65-8.2m-2,35.4h.05l.7,6.05q-.072-.807-.15-1.7-.25-2.7-.35-4.4a19.407,19.407,0,0,0,1.85-1.25l5.2-2.8q.251-.1,1.1-.55,2.2-.65,5-1.4,1,5.65,2.3,14.45l.05.3q.049.6.15,1.3.3,1.75.85,5.3l.3,2.35c.033.2.067.384.1.55a1.237,1.237,0,0,1,.15.3q.3,2.351.5,3.9a52.2,52.2,0,0,0,2.2,7.4l2.2,6.05q.1.25,1,3.4a17.281,17.281,0,0,0,1.15,3.4q1.151,2.3,1.7,3.3a10.1,10.1,0,0,0,1.2,1.75q.3.5.7,1.1h-.05q2.2,3.5,5.95,9.65h.05a3.923,3.923,0,0,0,1.25,1.2q8.4,13.851,16.45,20.55a13.824,13.824,0,0,1,1.3.8q1.05.651,6.75,4.1a2.12,2.12,0,0,1,.25.1,1,1,0,0,1,.45.1q2.149.5,2.25,1.15.1.7-.75.8a1.277,1.277,0,0,1-.6-.05,5.556,5.556,0,0,1-2.3-.75,2.632,2.632,0,0,1-.35-.15h-.05q-1.249-.6-2.15-1.1a7.634,7.634,0,0,0-.65-.55.549.549,0,0,0-.1.2,1.459,1.459,0,0,0,.1.55.535.535,0,0,0,.1.3,7.982,7.982,0,0,1,1.2,1.5q.1.6-.75.7-1.4.2-4.1-2.55a1.718,1.718,0,0,1-.45-.55.141.141,0,0,1-.1.05q-.851.1-.75.85a2.055,2.055,0,0,0,.75,1.35q.7.6,1.05.95l-1.5.2a8.226,8.226,0,0,0-.9.05,43.176,43.176,0,0,1-7.15-2.7q-.7-.5-1.45-1.1a12.589,12.589,0,0,1-1.35-.85,19.6,19.6,0,0,1-3.85-3.05.6.6,0,0,0-.15-.1,23.383,23.383,0,0,1-2.15-2.6,52.772,52.772,0,0,0-4.7-6q-1.849-1.95-2.85-3a17.527,17.527,0,0,1-1.8-1.95q-.7-1.05-1.5-2.15l-.2-.3q-.9-.95-2-2.3a43.5,43.5,0,0,1-4.45-6.9q-4.3-7.849-5.7-10.6-.45-.6-.85-1.1-.6-1.4-1.5-3.6-2.1-6.149-3.55-10.75a92.408,92.408,0,0,1-3.2-11.85,1.821,1.821,0,0,1,.1-.85q-.2-1.4-.55-3.75-.258-1.842-.7-6.7-.5-3.35-.75-6.05m54.35-89.35a1.347,1.347,0,0,1,.35-.9q.3,1.4.55,2.95a2.189,2.189,0,0,1-.5-.65,4.312,4.312,0,0,1-.4-1.4m-20.25,147.3a.549.549,0,0,1,.1.2c-.033-.066-.067-.1-.1-.1v-.1m21.55-137.5-.05.05h.05v-.05m-7.9.2a6.051,6.051,0,0,0-1-.2q-.6.1-.6,1a2.258,2.258,0,0,0,.05,1.05q.3,2.2,2.95,2.85l2.6-.4q3.558-1.374,3.85-4.45a6.816,6.816,0,0,0-.05-1.55,2.777,2.777,0,0,0-.35-1.1q-1.05-.4-1.25.6-.6,1.7-4.75,2.3a5.56,5.56,0,0,1-1.45-.1m-.8.55a6.912,6.912,0,0,1,.9.3,4.267,4.267,0,0,0,1.6,0,12.846,12.846,0,0,0,3.65-1,3.048,3.048,0,0,0,1.5-1.05v-.05q.3.5-.85,1.5a6.145,6.145,0,0,1-2.35,1.5l-2.5.35a2.159,2.159,0,0,1-1.25-.25q-.75-.4-.8-.75a.921.921,0,0,1,.1-.55m.15,1.8a7.275,7.275,0,0,0,1.9.5l2.55-.35a5.623,5.623,0,0,0,1.85-.9,11.718,11.718,0,0,0,1.2-1,6.427,6.427,0,0,1-.75,1.45,4.107,4.107,0,0,1-2.35,1.5l-2.5.35a2.983,2.983,0,0,1-1.9-1.55m-5-6.85a2.144,2.144,0,0,0-1.2-1.8,7.975,7.975,0,0,0-3.85-.15q-1.05.4-1.1,2.2a13.123,13.123,0,0,0,.2,2.45,3.929,3.929,0,0,0,.55,1.4,2.136,2.136,0,0,0,2.2,1.05,3.369,3.369,0,0,0,3-2.4,6.153,6.153,0,0,0,.2-2.75m-.8.1q.05.55.05,1a5.887,5.887,0,0,1-.3,1.45,6.856,6.856,0,0,1-.45,1,2.79,2.79,0,0,1-1.3.5,1.711,1.711,0,0,1-2.35-1.55,8.989,8.989,0,0,1-.05-2.1q.1-1.55,1-1.75a6.92,6.92,0,0,1,1.9.05q.4.15.85.3a1.677,1.677,0,0,1,.65,1.1m-.15-8.9c.033-.033.033-.1,0-.2a2.884,2.884,0,0,0-.25-.6,1.582,1.582,0,0,0-.55-.2.918.918,0,0,0-.55-.1h-.2a2.823,2.823,0,0,0-1.15.15h-.05v.05a4,4,0,0,0-1.7.95,7.9,7.9,0,0,0-.95,1.1,2.716,2.716,0,0,0-.6,1.45l.05.15a.287.287,0,0,0,.2.1c.033,0,.133-.116.3-.35a9.906,9.906,0,0,1,1.05-1.35,3.987,3.987,0,0,1,2.05-1.35q-.25.2-.15.85a1.158,1.158,0,0,0,.75.9l.95-.15q.95-.15.8-1.4m6.75-2.4q-.3-.45-.55-.85-1.6-1.249-2.55-.3-1.3,1.251-.95,4l1.5,5.25q2.051,5.451,4.35,5.1a2.157,2.157,0,0,0,1.6-.9,2.6,2.6,0,0,0,.3-1.8q-.15-1.1-.8-3.8a4.628,4.628,0,0,0-.25-.6q-.75-2.15-1.25-3.25-.4-.95-.7-1.8-.349-.5-.7-1.05m-2.45,4a7.886,7.886,0,0,1,.05-1.95,7.538,7.538,0,0,1,.25-2.1q1.3.3,2.75,3.75a18.965,18.965,0,0,1,1.4,4.4l.05,1.35a3.385,3.385,0,0,1-1.05,2.15q-2.25-3.549-2.7-4.3a13.46,13.46,0,0,1-.75-3.3m-11.8-7.9,1.7-.25a6.931,6.931,0,0,1,1.55.25,5.8,5.8,0,0,0,1.4.1h.1c.033-.1.083-.233.15-.4a.4.4,0,0,0,.1-.3.485.485,0,0,0-.1-.25.606.606,0,0,0-.1-.15.982.982,0,0,1-.35-.3q-3.7-1.6-6.4.6-2.6,2.151-2.25,4.7c.067.467.133.717.2.75q0,.051.7.1l.45-.25q.45-1.4.75-2.2A6.06,6.06,0,0,1,1477.15,47.863Z"/><path class="a" d="M1403.85,197.363q0,.7-.05,1.7l.05,10.25q.095,1.8.15,4,.207,1.667.65,5.75.6,5.8.6,6.65h0q-.374.78-.75,1.65a22.678,22.678,0,0,0-1.25,4.05q-.349,1.35-.95,4.05-.3,1.4-2.2,8.65a64.966,64.966,0,0,0-1.7,7.7,2.808,2.808,0,0,0,.1.75,3.625,3.625,0,0,0,1.65,1.75q2.3,1.4,7.25,1.85h22.8q5.43-1.418,7.2-4.55a1,1,0,0,0,.1-.15,17.88,17.88,0,0,0,1.1-5.1q.1-.849.95-5.35a29.783,29.783,0,0,0,.65-5.6,3.254,3.254,0,0,0-.35-1.75q.392-2.235.8-4.65,2.91-16.073,3.9-21.65a1.444,1.444,0,0,0-.05-.3q-.153-.636-.35-1.2a2.029,2.029,0,0,1-.4-.25q-2.4-1.3-5.95-3.4-5-2.85-8.2-4.4-10-4.5-25.15-6.1-.114.908-.45,2.4l-.15,1.75Q1403.873,196.508,1403.85,197.363Z"/><path class="b" d="M1498.2,56.563a1.347,1.347,0,0,0-.35.9,4.312,4.312,0,0,0,.4,1.4,2.189,2.189,0,0,0,.5.65q-.25-1.55-.55-2.95m-5.7,13.75a7.275,7.275,0,0,1-1.9-.5,2.983,2.983,0,0,0,1.9,1.55l2.5-.35a4.107,4.107,0,0,0,2.35-1.5,6.427,6.427,0,0,0,.75-1.45,11.718,11.718,0,0,1-1.2,1,5.623,5.623,0,0,1-1.85.9l-2.55.35m-1.15-2a6.912,6.912,0,0,0-.9-.3.921.921,0,0,0-.1.55q.05.351.8.75a2.159,2.159,0,0,0,1.25.25l2.5-.35a6.145,6.145,0,0,0,2.35-1.5q1.151-1,.85-1.5v.05a3.048,3.048,0,0,1-1.5,1.05,12.846,12.846,0,0,1-3.65,1,4.267,4.267,0,0,1-1.6,0m-6.5-4.25q0-.45-.05-1a1.677,1.677,0,0,0-.65-1.1q-.45-.15-.85-.3a6.92,6.92,0,0,0-1.9-.05q-.9.2-1,1.75a8.989,8.989,0,0,0,.05,2.1,1.711,1.711,0,0,0,2.35,1.55,2.79,2.79,0,0,0,1.3-.5,6.856,6.856,0,0,0,.45-1,5.887,5.887,0,0,0,.3-1.45m4.15-10.25a7.886,7.886,0,0,0-.05,1.95,13.46,13.46,0,0,0,.75,3.3q.45.75,2.7,4.3a3.385,3.385,0,0,0,1.05-2.15l-.05-1.35a18.965,18.965,0,0,0-1.4-4.4q-1.451-3.45-2.75-3.75A7.538,7.538,0,0,0,1489,53.813Z"/><path class="c" d="M1451.9,142.163q-.851.45-1.1.55l-5.2,2.8a19.407,19.407,0,0,1-1.85,1.25q.1,1.7.35,4.4.078.892.15,1.7.443,4.857.7,6.7.35,2.351.55,3.75a1.821,1.821,0,0,0-.1.85,92.408,92.408,0,0,0,3.2,11.85q1.454,4.6,3.55,10.75.9,2.2,1.5,3.6.4.5.85,1.1,1.4,2.751,5.7,10.6a43.5,43.5,0,0,0,4.45,6.9q1.1,1.35,2,2.3l.2.3q.8,1.1,1.5,2.15a17.527,17.527,0,0,0,1.8,1.95q1,1.05,2.85,3a52.772,52.772,0,0,1,4.7,6,23.383,23.383,0,0,0,2.15,2.6.6.6,0,0,1,.15.1,19.6,19.6,0,0,0,3.85,3.05,12.589,12.589,0,0,0,1.35.85q.75.6,1.45,1.1a43.176,43.176,0,0,0,7.15,2.7,8.226,8.226,0,0,1,.9-.05l1.5-.2q-.35-.349-1.05-.95a2.055,2.055,0,0,1-.75-1.35q-.1-.75.75-.85a.141.141,0,0,0,.1-.05,1.718,1.718,0,0,0,.45.55q2.7,2.751,4.1,2.55.851-.1.75-.7a7.982,7.982,0,0,0-1.2-1.5.535.535,0,0,1-.1-.3,1.459,1.459,0,0,1-.1-.55.549.549,0,0,1,.1-.2,7.634,7.634,0,0,1,.65.55q.9.5,2.15,1.1h.05a2.632,2.632,0,0,0,.35.15,5.556,5.556,0,0,0,2.3.75,1.277,1.277,0,0,0,.6.05q.851-.1.75-.8-.1-.649-2.25-1.15a1,1,0,0,0-.45-.1,2.12,2.12,0,0,0-.25-.1q-5.7-3.45-6.75-4.1a13.824,13.824,0,0,0-1.3-.8q-8.05-6.7-16.45-20.55a3.923,3.923,0,0,1-1.25-1.2h-.05q-3.75-6.15-5.95-9.65h.05q-.4-.6-.7-1.1a10.1,10.1,0,0,1-1.2-1.75q-.551-1-1.7-3.3a17.281,17.281,0,0,1-1.15-3.4q-.9-3.15-1-3.4l-2.2-6.05a52.2,52.2,0,0,1-2.2-7.4q-.2-1.549-.5-3.9a1.237,1.237,0,0,0-.15-.3c-.033-.166-.067-.35-.1-.55l-.3-2.35q-.55-3.549-.85-5.3-.1-.7-.15-1.3l-.05-.3q-1.3-8.8-2.3-14.45-2.8.75-5,1.4m1.55-72.75q0,.051.35,1.55a.741.741,0,0,1,.2.35c.033.067.067.134.1.2l.45.6a5.2,5.2,0,0,0,1.7.7l1-.15a2.129,2.129,0,0,0,.4-.65,5.454,5.454,0,0,1-.1-.6,16.811,16.811,0,0,0-1.15-4.25,7.809,7.809,0,0,0-.45-.8q-.551-1.85-1.6-1.45-1.45.651-.9,4.5m44.9-30.65a.824.824,0,0,0-.45.1q-.5.1-1.05.2l-4.25.4v.05q-2.149.5-2.2.55a.485.485,0,0,0-.35.45l.05.2a1.415,1.415,0,0,0,1,.1l1.65-.4,5.45-.6a6.492,6.492,0,0,0,.75-.15l2.35-.35a14.911,14.911,0,0,1,2.1.1.637.637,0,0,1,.5.5c.033.167.017.267-.05.3a1.3,1.3,0,0,1-.8.3l.7.7a10.892,10.892,0,0,0,1.5,1.8q.25.2.55.4a42.422,42.422,0,0,1,2.6,4.45,42.042,42.042,0,0,1,2.45,6.35,10.189,10.189,0,0,1,0,2.5,7.474,7.474,0,0,0,.05,1.9,107.758,107.758,0,0,1,1,12.7q.049,2.451.05,4.05l-.1.6q-.649,4.451-2.45,11.55a14.736,14.736,0,0,1-.95,2.3,17.354,17.354,0,0,1-.9,2.45,21.317,21.317,0,0,1-2.8,3.95,12.322,12.322,0,0,1-.9,1q-1.549,2.1-4,5.1-.851.9-1.6,1.75-1.35,1.851-4,4.95-2.2,2.4-3.9,4-1.15,1.2-2.7,2.85-3.35,2.6-6.1,4.35-2.1,6.6-5.7,17.6a108.752,108.752,0,0,0,12.5-8.9l.55-.1q.732-.583,1.65-1.25c.073-.053.139-.1.2-.15q2.57-2.532,8.35-8.2,5.4-5.349,8.15-8.55a54.25,54.25,0,0,0,4-5.2.467.467,0,0,0,0,.3v.1a.616.616,0,0,0,.15-.25,5.816,5.816,0,0,0,.45-.5,4.5,4.5,0,0,0,.35-.5,4.671,4.671,0,0,1,.85-1.1,31.133,31.133,0,0,0,3.8-6.9q.8-1.95,1.75-4.75.251-.649.55-1.35a25.309,25.309,0,0,0,.7-3.05q.7-2.3,1.65-5.5a36.541,36.541,0,0,0,1.25-15.65,32.028,32.028,0,0,0-1.3-5.6c-.033-.2-.067-.433-.1-.7a33.507,33.507,0,0,0-1.8-6.8,24.529,24.529,0,0,0-2.95-6.2,31.816,31.816,0,0,0-6.4-5.2q-5.9-3.95-9.2-3.45-1.3.2-2.4.4h-.25m-26.1,4.25q-2.05,1.05-3.15,1.5l-.7.7a22.545,22.545,0,0,1-2.2,1.9q-.251.6-.7,1.55-.2,1-.3,1.5-.45,1.5-1.25,4.7a.953.953,0,0,0-.05.3q-.15,1.1-.4,2.45a18.743,18.743,0,0,1-.95,4.15q-.15,1.251-.3,2.75-1.1,8.25-2.7,9.7a1.131,1.131,0,0,1-.45-.25,9.8,9.8,0,0,0-.3,1.25q-1,2.2-1.65,3.75a7.37,7.37,0,0,1,1.4,3.1q.4,3.051-1.85,7.2-.3.55-.6,1.15-.4,1.2-.95,2.8a36.563,36.563,0,0,0-2.85,5.5,72.559,72.559,0,0,1-3.55,7.15q-1.25,2.2-2.5,4.2a.547.547,0,0,0,.15.1q.216.207.4.4,1.08,1.015,1.8,1.7,1.347,1.258,1.5,1.35a33.306,33.306,0,0,0,3.05,2.5q.5.351,3.7,2.55a19,19,0,0,0,4.2,2.1q1.05.3,5.7,1.6,1.2.351,2.4.8a12.039,12.039,0,0,0,3.25.6q2,.251,4.95.35a.953.953,0,0,1,.3.05q.2-.7.55-1.65.8-2.45.85-2.45l.15-.3v-.05q.2-.649.4-1.4a74.592,74.592,0,0,0,2.85-9,69.52,69.52,0,0,1,2.8-9.85,5.687,5.687,0,0,1,.35-.9q.251-1.249.45-2.05.2-.549.4-1.05l-1.7.3a14.4,14.4,0,0,1-5.75-.5q-.7-.2-1.35-.45-.75-.15-1.55-.3a27.087,27.087,0,0,1-7.3-3.8,19.539,19.539,0,0,1-3.7-3.8.555.555,0,0,1-.2-.2l-.15-.35a.287.287,0,0,0,.05-.15,6.133,6.133,0,0,1,.95.4,16.491,16.491,0,0,0,1.85,1.75,7.774,7.774,0,0,0,.75.75c-.133-.166-.217-.266-.25-.3v-.05a18.866,18.866,0,0,0,9.6,4.05,23.493,23.493,0,0,0,9.3.45q3.3-.45,7.25-5.05a32.935,32.935,0,0,0,4.25-6.25,5.065,5.065,0,0,0,.45-1.05,3.712,3.712,0,0,1,.3-.85l.7-2.15q.15-.3.4-.9a42.823,42.823,0,0,0,.35-4.85,1.119,1.119,0,0,1,.05-.35c-.033-.266-.067-.516-.1-.75l-.1.2q-.049-1.149-.3-2.95-.15-1.05-.3-1.8l.05.05q-.55-3.45-1.1-6.3a1.4,1.4,0,0,1-1.25-.6,2.98,2.98,0,0,1-.3-1,8.364,8.364,0,0,1-.05-2,1.572,1.572,0,0,1,.65-1.15q-.5-2.2-1.05-3.9a.953.953,0,0,1-.05-.3v-.05a3.625,3.625,0,0,0-.15-.7,1.822,1.822,0,0,1-.25.1.958.958,0,0,1-1.05-.4,5.046,5.046,0,0,1-.15-.55.628.628,0,0,1,0-.35,3.589,3.589,0,0,0-1.25.55,6.592,6.592,0,0,1-.8.5h-.3a2.718,2.718,0,0,1,.2-.6,1.745,1.745,0,0,1,.3-.45,4.782,4.782,0,0,1,.45-.7,2.247,2.247,0,0,1,1.5-.65.435.435,0,0,0,.2-.05q-.5-1.2-.85-1.95-.251-.45-.45-.8-.3-.549-.55-1l-1.55.2h-.05a1.315,1.315,0,0,0-.3.15h-.05a.631.631,0,0,1-.1.15h-.05l-.5.85q-.18.324-.3.55a.617.617,0,0,1-.2.15.535.535,0,0,1-.55-.5,1.936,1.936,0,0,1,.55-1.65,4.167,4.167,0,0,1,2.5-1.1,19.185,19.185,0,0,0-1.1-1.75l-2.35.3a.831.831,0,0,0-.25-.05h-.2a.044.044,0,0,1-.05-.05,1.1,1.1,0,0,1-.35-.15.291.291,0,0,1-.05-.2.2.2,0,0,0-.15-.05.616.616,0,0,0,.15-.25q.049-.65,1.9-1.5-.3-.4-.6-.75a4.2,4.2,0,0,0-1.25-1.15,7.774,7.774,0,0,0-.7-.5l-.2-.1q-.4-.15-.85-.3a3.5,3.5,0,0,1-1.25,1.15,28.518,28.518,0,0,1-6.15,2.35,44.31,44.31,0,0,0-7.4,3m6.6,4.6-1.7.25a6.06,6.06,0,0,0-2.1,2.4q-.3.8-.75,2.2l-.45.25q-.7-.05-.7-.1c-.067-.033-.133-.283-.2-.75q-.35-2.55,2.25-4.7,2.7-2.2,6.4-.6a.982.982,0,0,0,.35.3.606.606,0,0,1,.1.15.485.485,0,0,1,.1.25.4.4,0,0,1-.1.3c-.067.167-.117.3-.15.4h-.1a5.8,5.8,0,0,1-1.4-.1,6.931,6.931,0,0,0-1.55-.25m12,3.3q.251.4.55.85.349.551.7,1.05.3.85.7,1.8.5,1.1,1.25,3.25a4.628,4.628,0,0,1,.25.6q.649,2.7.8,3.8a2.6,2.6,0,0,1-.3,1.8,2.157,2.157,0,0,1-1.6.9q-2.3.351-4.35-5.1l-1.5-5.25q-.349-2.749.95-4,.949-.95,2.55.3m-6.2,3.05c.033.1.033.167,0,.2q.15,1.251-.8,1.4l-.95.15a1.158,1.158,0,0,1-.75-.9q-.1-.65.15-.85a3.987,3.987,0,0,0-2.05,1.35,9.906,9.906,0,0,0-1.05,1.35c-.167.234-.267.35-.3.35a.287.287,0,0,1-.2-.1l-.05-.15a2.716,2.716,0,0,1,.6-1.45,7.9,7.9,0,0,1,.95-1.1,4,4,0,0,1,1.7-.95v-.05h.05a2.823,2.823,0,0,1,1.15-.15h.2a.918.918,0,0,1,.55.1,1.582,1.582,0,0,1,.55.2,2.884,2.884,0,0,1,.25.6m-.25,7.2a2.144,2.144,0,0,1,1.2,1.8,6.153,6.153,0,0,1-.2,2.75,3.369,3.369,0,0,1-3,2.4,2.136,2.136,0,0,1-2.2-1.05,3.929,3.929,0,0,1-.55-1.4,13.123,13.123,0,0,1-.2-2.45q.049-1.8,1.1-2.2a7.975,7.975,0,0,1,3.85.15m5.85,6.1a6.051,6.051,0,0,1,1,.2,5.56,5.56,0,0,0,1.45.1q4.15-.6,4.75-2.3.2-1,1.25-.6a2.777,2.777,0,0,1,.35,1.1,6.816,6.816,0,0,1,.05,1.55l.05-.05v.05h-.05q-.291,3.076-3.85,4.45l-2.6.4q-2.651-.649-2.95-2.85a2.258,2.258,0,0,1-.05-1.05Q1489.65,67.363,1490.25,67.263Z"/><path class="d" d="M1445.5,111.363v.05q-2.85,4.45-5.65,8.2a131.076,131.076,0,0,0-14.85,24.85q-7.7,16.2-11.5,24.35-3.227,6.8-5.7,12.45-2.163,4.968-3.75,9.05a.556.556,0,0,1,.2-.1l.05-.15c.033,0,.067.034.1.1q5.749-2.15,22.3,4.2a120.055,120.055,0,0,1,13.85,6.3,28.5,28.5,0,0,1,5.75,3.85.451.451,0,0,1,.05-.2l.1-.05h.05q.6-1.4.95-2.5a1.166,1.166,0,0,1,.15-.45q.3-.649,1.4-2.6t1.5-2.75q.5-1,1.3-2.55.5-1,.85-1.55-1.85-3.549-2.3-4.7a15.844,15.844,0,0,0-.55-1.5v-.15a.044.044,0,0,1-.05-.05q-.3-.9-.65-1.8-.217-.974-.5-2.2-.687-2.923-1.75-7.25-.8-3.35-1.4-5.9l-.85-3.55q-.6-2.6-1-4.4-.649-3.8-1-5.75-.1-.6-.2-1.1-.45-3.2-.75-5.25-.3-.5-.35-.6,0-.15-.15-1.2-.5-3.6-.8-7.8-.2-1.1-.35-2.25-.25-1.5-.55-6.1a9.192,9.192,0,0,1,.05-1.6q.15-1.35.2-1.55a3.024,3.024,0,0,1,.45-1.65q.55-.95.8.6a11.506,11.506,0,0,1-.1,2.5q-.2,1.95-.2,2.6a42.231,42.231,0,0,0,.6,4.9q.3,2.1.85,4.55.6,2.451.65,2.95.1.7.15,1.4a19.612,19.612,0,0,1,4.5-2.45,4.824,4.824,0,0,1,.95-.4.508.508,0,0,1,.25-.15h.05a3.8,3.8,0,0,1,.65-.25q.649-.4,1.25-.7,3.35-2.4,5.25-2.65a.549.549,0,0,0,.25-.05,4.671,4.671,0,0,1,1.35-.3.5.5,0,0,1-.25.1,1.106,1.106,0,0,0,.35-.05h.1l-.35-2.4q-.2-1.249-.4-2.45v-.7l-.6-4.35q-.6-3.75-.65-4.15a5.109,5.109,0,0,1-.1-1.3q.349.4.65.8a10.618,10.618,0,0,1,.8,2.25q.35,1.4.9,3.9.1,1.451.25,3.6l.75,4.85a5.51,5.51,0,0,1,.05,1.2.54.54,0,0,1-.1.2.918.918,0,0,1-.35.5.57.57,0,0,1-.1.15,2.831,2.831,0,0,0,.15.9q.15.9.35,1.85l1.25,6.85v.7a.562.562,0,0,1,.05.25q.75,3.9,1.1,6.3.3,2.2.5,5.4.1,1.5.15,2.65a1.666,1.666,0,0,1,.05.4q.949-1.8,2.05-3.95a134.02,134.02,0,0,0,9-21q2.55-9.249,4.25-14.45-4.4.051-12.05-2.5a50.824,50.824,0,0,1-9.5-3.75q-4.466-3.355-7.1-5.65a26.594,26.594,0,0,1-3.05-2.9h-.05C1445.467,111.313,1445.467,111.33,1445.5,111.363Z"/><path d="M1148.55,384.363a12.8,12.8,0,0,1-.65,1.15,10.689,10.689,0,0,1,.7-.9v-.15a.144.144,0,0,1-.05-.1m-121.85-72.4q.75.1,1.45.15a3.2,3.2,0,0,1-.3-.35Z"/><path class="e" d="M1227.45,274.763l-.4-.1q-.8.1-1.7.15-1.75.551-8.8,2.05l-19.45,2.75-.65-.15-27.45,3.8-.55-.1-14.25,2q-1.6.4-3.25.95l-13.8,1.95a.207.207,0,0,0-.05.15l-12,1.8q-5.95,1.2-9.55,1.95l-1,.2-1.75.35-20.55,2.85q-1.151.1-2.4.2-7.9,1.65-13.4,2.85l-37.6,5.5q-.8.2-1.6.35-8.75,1.8-17,3.35-2.95.25-6.1.65-7.75,1.4-8.95,1.85a1.193,1.193,0,0,0-.7.5,3.121,3.121,0,0,1-.35.75,1.656,1.656,0,0,0,.65.2.4.4,0,0,0,.2.3v.15a27.752,27.752,0,0,1,3.5,2.5,23.565,23.565,0,0,0,2.75,1.8l.3.15q8.149,6.351,28.6,18.85.75.4,1.6.8a77.569,77.569,0,0,1,17.95,11.35q5.051,4.3,13.55,12.8,15.25,13.851,29.85,25.45,10.2,8.25,19.4,14.95,3.349,2.451,6.05,4.35a3,3,0,0,0,.35.6q.649.351,1.25.7,1.249.651,2.25,1.15a.383.383,0,0,0,.05-.15q.1,0,3.5-4.6,3.551-4.95,4.9-7.15a47.421,47.421,0,0,0,2.95-5.9,33.376,33.376,0,0,1,2.9-5.75q2.5-3.5,7.6-9.45,1.451-1.4,2.7-2.8,1.9-2.349,4.8-5.85.851-1.2,1.45-2.2,1.151-2.149,3.65-6.85.5-.7,1.25-1.65a5.577,5.577,0,0,1,.4-.75,43.4,43.4,0,0,1,3.65-5.55q.4-.649.75-1.15a103.255,103.255,0,0,1,7.6-8.95q1.55-1.7,2.8-3.15,1.8-2.55,3.4-4.5,1.25-1.4,2.7-3.35,2.149-3.2,5.55-8.5a15.911,15.911,0,0,1,3.05-3.35q.75-.9,1.65-2a47.417,47.417,0,0,1,5.45-6.75.673.673,0,0,1,.3-.25,37.484,37.484,0,0,0,4.25-4.6q.4-.5.7-.95,1.1-1.55,3.05-4.1a25.045,25.045,0,0,0,2.3-2.95q1.451-1.749,3.3-4.15.6-1.3,1.6-3,.851-1.149,1.95-2.5a72.6,72.6,0,0,0,5.7-8.35,8.33,8.33,0,0,0-.4-1.05.88.88,0,0,1-.1-.4.816.816,0,0,0-.2-.15l-.05.05-.1.05m-199.3,37.35q-.7-.05-1.45-.15l1.15-.2a3.2,3.2,0,0,0,.3.35m295.9-157.2q-.3.351-.55.7-3.75,6.4-5.45,9-.35.45-4.5,5.9a42.072,42.072,0,0,1-5.65,6.6q-3.8,3.651-5.6,5.45-.851,1.1-1.65,2.25-1.151,1.6-2.3,3.05l-.4.6a162.482,162.482,0,0,0-9.35,14.85q-.45.9-1,1.85-11.8,13.95-19.3,22.05-5.2,5.751-9.55,11.15-2,3.55-3.2,5.75-2.65,5.151-4.15,7.7a45.306,45.306,0,0,1-6.4,8.15,80.469,80.469,0,0,0-6.6,8.4,10.031,10.031,0,0,1-2.3,3.25l.05.05q-1.151,1.3-2.5,2.75-.9,1.3-2.45,3.25-.8.851-1.55,1.7h.1q-1.1,1.3-2.25,2.9-1.5,2.751-2.35,4a38.1,38.1,0,0,1-2.95,4.6q-3.35,4.4-9.7,11.7-1.65,1.851-2.85,3.3-3.2,4-5.7,7.25-15.3,19.851-22.2,30.85-5.1,8.25-26.75,36.8-6.349,8.3-10.5,13.95.1.5-6.75,10.65-.049.4-.2,1.4c-.067.067-.1.117-.1.15.033.2.067.4.1.6a3.344,3.344,0,0,0,1.3,2.2h.65q2.25-.15,6.65-.75l11.1-1.85a6.5,6.5,0,0,0,1.65-.5,317.881,317.881,0,0,0,40.9-9.6l58.85-8.25q2.5.251,18.1-1,15.649-1.249,18.75-.95l22.25-2.85q.7.1,8.35-.65,7.05-.649,8.55-.85.349-.05,8.9-1.95,2.5-.549,4.45-.95,4.35-1.35,7.45-2.2a2.415,2.415,0,0,0,.7,0q1.549-.2,1.6-2.1,0-.45-.25-2.35l-2-10.8q-.1-2.8-.2-4.75-.7-3.9-2-10.05c-.033-.166-.067-.35-.1-.55q-.649-5.349-.85-7.4-.6-11.55-1.45-17.6-.05-1.549-.2-3.15-1.15-7.65-1.45-12l-2.1-15.2a.953.953,0,0,1,.3-.05l-.9-8q-.75-5-2.75-15.25l-.9-6.55q-.649-3-1.15-5.9a5.994,5.994,0,0,1,.15-1.35,29.2,29.2,0,0,1-.65-3.15c-.067.067-.117.1-.15.1q-.4-2.149-.75-4.4l-2.6-22.2q-.649-2.25-1.4-6.5-1.549-8.75-1.55-8.9a90.562,90.562,0,0,1-.75-13.2v-.1a27,27,0,0,1-.1-4.85l-2.55-18.25-.05-2-1.65-11.95a17.517,17.517,0,0,1-.75-3.05.319.319,0,0,0-.2.25q-.15-1.2-.3-2.5a7.586,7.586,0,0,0-.8-.7,6.965,6.965,0,0,1-1.7.45A15.535,15.535,0,0,1,1324.05,154.913Z"/><path class="f" d="M1223.05,183.313a15.463,15.463,0,0,1-.4-1.5q-.1-.4-.75-5a47.376,47.376,0,0,0-1-4.95q-.251-1.1-.4-1.85a6.8,6.8,0,0,0-1.8-.3,3.891,3.891,0,0,1-.65-.05q-1.3.25-2.3.4l-23.15,2.95-1.5-.25-21.8,3.1q-11.149.9-11.65.9l-12.1,1.65a29.36,29.36,0,0,0-4.15.3q-3.4.3-4.1.4l-10.45,1.35q-2.2.3-9.75.75l-10.7,2.25a2.857,2.857,0,0,0-.9.65,19.109,19.109,0,0,0-.15,2.55q.15.351.35.85,0,.9.35,4.65.05.351.2,2.6.1.6.3,1.6a.393.393,0,0,0-.15-.05h-.1q.1.951.15,2.3l5.85,41.6a73,73,0,0,0,.65,10.65q.35,2.951.4,5.25l3.65,25.85q.349,1.251.7,3.3a.831.831,0,0,1,.25.05,2.484,2.484,0,0,0,.05.85l.2.55a2.414,2.414,0,0,0,1.85.3,77.45,77.45,0,0,0,9.15-1.8l8.45-1.15.6.1.3-.1,7.35-1.15q4.5-.8,7.9-1.55,4.65-1,10.6-2.1l21.65-3.05a2.1,2.1,0,0,0,.4-.05l9.7-1.35q1.05-.05,8.25-.75,5.95-.549,9-.55,1.1-.349,1.95-.55l9.75-1.6a27.866,27.866,0,0,0,2.9-.8q2.149-.3,4.1-.55,2-.3,1.6-3.35a33.492,33.492,0,0,1-.9-4.25q-.049-1-.05-3.9a30,30,0,0,0-.2-3.9q-.15-1.1-1-4.3a28.336,28.336,0,0,0-.85-2.75q-.4-3.6-1.2-10.8-1.1-9.8-1-10.85a6.913,6.913,0,0,0,.2-.95l-.75-5.15q-.1-2.349-.55-8.1-.2-1.3-.4-2.75l-.15-1.7a1.243,1.243,0,0,1-.15-.55q-.6-2.8-1.6-8-.649-3.949-.85-5.2-.7-5.149-1.2-10.2m-50.3-4.8h-.2l1.25-.15-1.05.15m391.05,54a3.91,3.91,0,0,0,0-1.25.953.953,0,0,0-.05-.3q-4.75-.15-12.65-.95-12.1,1-16.05,1.2l-12.4,1.65a23.623,23.623,0,0,0-3.4.05l-11.1,1.55q-.5.051-1.05.15l-.25-.25a3.063,3.063,0,0,0-2.15-.05l-20.1,2.9q-5.1,1.4-5.75,1.6l-8.1,1.15a31.823,31.823,0,0,1-3.25,1.1,16.452,16.452,0,0,1-1.8.55q-1.751.5-2.7.75a9.045,9.045,0,0,1-1,.25l-2.5.35a8.008,8.008,0,0,0-.75.75q-1.25,2.2-2.25,4-.349.7-.7,1.35a39.278,39.278,0,0,1-3.1,4.85q-1.1,1.45-3,4.2-.551.5-1.1.95-1.3,1-6.9,8.9a51.261,51.261,0,0,0-5.45,8.85q-1.2,2.151-2.25,3.8-1.1,1.851-2.25,3.6c-.133.234-.267.45-.4.65q-.75,1.1-1.4,2.2-6.9,10.9-10.45,16.05-2.3,3.651-3.6,5.55-.75,1.2-1.5,2.3-1.4,1.95-2.55,3.55-1.8,2.451-3.65,4.55-2.7,4.15-8,12.15-1.6,2.55-6.25,8.6-5.051,6.45-6.4,8.5-5.85,8.451-9.3,13.5-3.649,5.151-4.75,6.7a11.07,11.07,0,0,1-.65,1.05q-2.351,3.15-4.1,5.6l1.3-.2a15.763,15.763,0,0,0,1.75-.1,5.353,5.353,0,0,1,.75-.05q.649-.05,1.25-.05a.57.57,0,0,0,.1-.15,60.247,60.247,0,0,1,6.3-.85l70.15-9.9q.5-.249,11.35-1.95,1.1-.249,2.3-.4,2.75-.75,2.95-.85l5.2-.7,3.9-5.2a54.4,54.4,0,0,1,4.4-4.95q.649-.7,1.45-1.5,3.3-5.2,7.65-13.1,9.949-18.3,11.55-20.95,6.75-11.55,12.5-17.25,11.351-11.3,17.25-17.9,8.25-9.3,11.45-15.75,2.951-5.75,13.9-19.7.851-1.1,1.6-2,.8-1.149,1.6-2.4v-.1a2.252,2.252,0,0,0,.4-.4,5.475,5.475,0,0,0,.45-.75,54.689,54.689,0,0,0,3.55-5.5m-4.75,2.7-.1.15-.05.1-.05-.25Z"/><path class="g" d="M1320.65,152.513a17.746,17.746,0,0,0-3.05.45.291.291,0,0,0-.2-.1l-4.1.6q-1,.651-7.9,1.95l-8,1.2a10.282,10.282,0,0,1-1.4.4l-9.4,1.3a7.7,7.7,0,0,1-1.3,0l-4.35.6q-8.8,2.151-15.35,3.8l-17.5,2.45q-1.65.1-3.1.25a1.777,1.777,0,0,1-.6,0l-.65.1a102.831,102.831,0,0,0-13.2,1.85l-.3.05h-1.05q-1.4.4-2.45.8-.049.2-.15.55,0,.5-.05,1.05l.05.1v.35q.1.951.35,2.6,0,.8-.05,1.75.15,1.851.4,4.25.2,3.45.3,6.05.3,1.45.6,3.6.3,2.1,1.1,14.1.649,8.951.9,13.7.649,3.1,1.6,7.2.251.851.6,2.7a34.636,34.636,0,0,0-.25,6.15q.9,5,1.75,11.35a11.73,11.73,0,0,1,.25,1.55,7.882,7.882,0,0,0,.1,1.2,56.731,56.731,0,0,1,.65,6.1q.049.351.9,12.4a3.092,3.092,0,0,0,.4,1.35.293.293,0,0,0-.05.2l.1.05h.15a.393.393,0,0,1,.15-.05,2.467,2.467,0,0,0,.9-.4q.649-.8,1.4-1.75a5.683,5.683,0,0,1,.4-.45,39.186,39.186,0,0,0,2.25-4.35,9.426,9.426,0,0,1,.5-.95q1.75-2.3,8.6-12.25a32.584,32.584,0,0,0,3.75-6.4,54.5,54.5,0,0,1,3.15-6.5,53.421,53.421,0,0,1,5.1-6.7.145.145,0,0,1,.1-.05.63.63,0,0,1,.25-.35q.8-1.149,3.6-4.4a6,6,0,0,0,.65-.75q.8-.9,1.1-1.3.5-.75,4-6.55a30.054,30.054,0,0,1,5.4-6.75,98.463,98.463,0,0,0,12.65-13.9q3.5-4.6,9.35-13.05a113.478,113.478,0,0,1,11.75-13.7q1.3-1.35,2.65-3l2.55-2.3,1.5-2.3q1.7-2.2,3.15-4a5.667,5.667,0,0,1,.05-1.3c-.133-.1-.283-.216-.45-.35a1.6,1.6,0,0,1-.25-.2m75.25,97.4.05.3q-5.38,1.02-9.4,1.95a1.387,1.387,0,0,1-.15.4q-1.524.425-2.5.6l-3.3.6a.1.1,0,0,0,.05-.1q-.6.18-1.15.3-2.84.556-3.85.8l-19.1,2.95q-1.1.051-2.35.2-6.75,1.1-6.6,2.45a1.764,1.764,0,0,0,.5.8,7.079,7.079,0,0,0-.35,2.7q.15,1.65.3,4.6l1.05,7.45a16.469,16.469,0,0,0,.2,1.75q1.15,9.1,1.5,15.95.05,1.05.1,2,.049,2.1.05,3.9a72.1,72.1,0,0,0,.25,7.95q2.9,14.6,3.7,20.2l1.05,9.75a7.125,7.125,0,0,1,.05.95.8.8,0,0,0,.1.35q.05,3.85.55,9.5.649,5.85,1.5,11.45.15.75.9,4.6l1.65,11.9q.3.25.45.4a1.4,1.4,0,0,0-.05.3,15.885,15.885,0,0,1,2.15-.5.089.089,0,0,1,.1-.1,32.814,32.814,0,0,0,3.05-2.65,1.192,1.192,0,0,1,.55-.25q1.05-1.4,2.35-3.25,2.85-4.05,4.6-6.55a.435.435,0,0,0,.2-.05,36.68,36.68,0,0,0,4.2-5.8,35.026,35.026,0,0,1,5-6.55,34.617,34.617,0,0,0,3.25-3.9q1.05-1.449,2.05-3,.5-.8.9-1.6a43.369,43.369,0,0,0,2.2-4.3,87.052,87.052,0,0,1,7.8-12.15,7.568,7.568,0,0,0,.6-1.15,1.484,1.484,0,0,1,.35-.05q1.549-2.1,2.9-3.9,4.751-6.549,5.9-8.3,7.151-10.749,13.5-19.45,3.4-3.8,3.65-4.15a10.506,10.506,0,0,0,1-1.9,37.767,37.767,0,0,0,4.15-6.55q1.05-1.249,2.25-2.65a59.206,59.206,0,0,0,6.6-11.4q3-6.45,4.65-9.45,1.95-1.749,2.9-2.8.7-1.1,1.65-2.5a6.31,6.31,0,0,1,.6-.85q.45-.75,1-1.65c.133-.266.267-.516.4-.75q.3-.35.55-.6a29.581,29.581,0,0,0,2-3.65q.45-1.05.95-2a6.293,6.293,0,0,0-2.7.1l-29.25,3.85Q1422.15,246.214,1395.9,249.913Z"/><path class="h" d="M1199.05.013a2.838,2.838,0,0,0-1.2.45q-3.851,1.8-12.9,12.2a215.943,215.943,0,0,0-22.75,30.9q-8.7,15.15-13.8,23.15a146.522,146.522,0,0,1-18.4,23.6q-8.8,9.051-17.8,23.85-10.7,17.6-14.95,23a131.78,131.78,0,0,1-11.3,12.15q-.5.5-1,.95-4.4,5.751-13.65,17.05-5.6,7.2-10.4,13.3-.8,1.4-1.6,3a5.053,5.053,0,0,0,1.25,1.95,34.549,34.549,0,0,0,6.4-.4q5.9-.549,6.15-.6.8.051,6.05-.15a36.346,36.346,0,0,1,4.35-.1l16.55-2.35q3.05-.649,5.95-1.2a7.779,7.779,0,0,1,3.3-.85v-.1l8.25-1.2a2.1,2.1,0,0,0,.4.05q1.45-.249,4.2-.7a40.269,40.269,0,0,0,6.7-1.85l12.5-1.75a47.247,47.247,0,0,0,5.55,0l23.3-3.3.6-.2,24.15-4.2a56.213,56.213,0,0,1,11.8-1.2l7.95-1.1q1.65-.6,14.9-2.9l20.55-2.7a29.921,29.921,0,0,0,4.7-1.1q2.9-.75,6.25-1.4,0-.1,6.8-1.05a1.326,1.326,0,0,1,.75.2l3.95-.55q1.7-.1,3.25-.25l12.25-1.7a195.892,195.892,0,0,0,21.25-2.15q3.251-.5,8-1.65l11.6-1.65a20.03,20.03,0,0,1,2.7-.1l.2-.05q.1,0,8.35-.6l.8-.1a.214.214,0,0,1,.2,0,17.578,17.578,0,0,0,1.85-.1l7.85-1.15q1.549-.35,4.65-.95l-.05-.15,19.5-2.75c.233-.066.483-.15.75-.25q3.45-1,3.1-3.25a4.839,4.839,0,0,0-.15-.8c-.233-.166-.467-.316-.7-.45l-12.95-10.45q-6.9-4-12.5-7.5a73.118,73.118,0,0,1-8.3-5.65,52.944,52.944,0,0,1-9.35-8.25q-15.1-17.449-48.5-35.9-10.7-5.949-21.7-17.75-13.6-14.6-19.45-19.1-3.349-2.649-14.35-8.8-12.95-7.2-14.8-8.45-7.849-7.549-11.85-11.3a23.534,23.534,0,0,0-4-3.05A1.089,1.089,0,0,0,1199.05.013Z"/><path class="a" d="M1964.7,258.013q51.2-9.4,64.55-12.4,6.678-1.527,22.25-6.35-37.35,3.945-88.45,13.15-67.5,12.15-183.4,38.35-134.75,31-202,46-117.1,26.1-192.15,39.1l-135.6.75q-27.745,2.31-52.5,2.75h-14.05q-20.751,1.2-55.85,2.65-69.649,2.85-83.5,2.85-76.55,0-210.6-24.95-51.8-9.649-127-25.7-89.85-19.5-136.6-29.65-178.5-38.749-287.5-56.6Q121,221.563,0,219.363q3.9,1.8,40.9,6.9,33.9,4.65,73.1,9.1,109.1,11.3,176.55,22.6,15.018,2.522,29.15,5.25,9.083.793,17.8,1.15a287.486,287.486,0,0,1,33.1,5.5q23.9,5.651,27,6.25,17.319,3.4,40.25,9a176.168,176.168,0,0,1,18.8,2.5q17.4,3.1,36.55,8.15,11.55,2.151,31.25,7.25a385.36,385.36,0,0,0,48.95,7.35q10.05.951,40.75,9,5.587,1.464,11.3,3,17.554,3.793,27.95,5.4,15,2.351,17.15,2.75,2,.39,8,1.75,3.255.349,6.7.7a182.1,182.1,0,0,1,31.7,5.85q20.3,5.751,23.4,6.4,46.35,9.55,51.8,10.7,27.15,5.7,50.6,11.05,10.1,2.291,18.35,4.2,13.609,1.774,22,2.45,13.8,2.7,27.6,6.15.563.141,1.1.25,20.97,2.438,62.4,7.95l43.2.2q1.4.2,13.85.7,12.55.5,14.15.7l39.95.2q3.945-.585,11.25-1.6l70-.2q11.2-1.1,47.6-2v-.2h22.6q1.886-.3,4.35-.75a225.812,225.812,0,0,1,23.45-1.45v-.2H1335q1.443.141,2.85.25.984-.009,1.95-.05v-.2h30.4l.85.1q1.2-.1,2.45-.2,14.2-1.249,23.7-2.5,44.449-5.7,59.4-8,12.5-1.9,37.75-8.4,30.75-7.9,35.85-9,2.067-.421,43.55-7.7,21.306-5.116,27.6-6.7,56.7-14.2,75.95-17.95,14.219-2.752,31.75-5.45,2.171-.779,4.6-1.7,8.742-2.8,12.85-2.6,20.5-5.37,54.35-13.3,13.7-3.15,58.1-12.5,43.7-9.6,71.65-18.1Q1921.85,265.913,1964.7,258.013Z"/></svg>