<svg xmlns="http://www.w3.org/2000/svg" viewBox="0 0 1055.95 221.25"><defs><style>.a{fill:#fc4e30;}.b{fill:#190fa0;}.c{fill:#84af97;}.d{fill:#9dcbb2;}.e{fill:#678670;}.f{fill:#699;}</style></defs><title>6</title><path class="a" d="M473.85,48.9q-2.1-1.3-3.15-.8a4.7,4.7,0,0,0,2.05,2.75,5.529,5.529,0,0,0,3.15,1.45.848.848,0,0,0,.7-.45l.4-.65q-2-1.55-3.15-2.3m1.45-7.1a.87.87,0,0,1-.15.35,3.26,3.26,0,0,0-.05.75,7.121,7.121,0,0,0,1.5,1.8q1.6,1.7,2.3,1.7.251,0,.7-.45.45-.5.6-.65.2-.949-1.75-2.3a5.417,5.417,0,0,0-3.15-1.2m21.45-18a3.684,3.684,0,0,0-4.05.1,7.357,7.357,0,0,0,1.2,2.05,4.683,4.683,0,0,0,3.6,1.45,4.309,4.309,0,0,0,1.7-.3l.2-1.05a6.406,6.406,0,0,0-2.65-2.25m-10.8,8.95a8.86,8.86,0,0,0-3.25-1.35,1.161,1.161,0,0,1-.15.3,1.931,1.931,0,0,0-.05.65,6.826,6.826,0,0,0,1.5,2.2q1.75,2.051,3.1,2.05a1.779,1.779,0,0,0,.8-.2,1.061,1.061,0,0,0,.7-1.05q0-1.1-2.65-2.6m20.25-18.4q-2.4-2.05-2.4.45a15.412,15.412,0,0,1,1,1.8q1.249,2,2.3,2,1.5,0,1.5-1.3,0-.9-2.4-2.95M577,40.05a1.452,1.452,0,0,0-.15-.8.731.731,0,0,1-.15-.25q-3.95,1.1-4.8,1.4-2.5.95-2.5,2.1,0,.6.15.7a.541.541,0,0,0,.25.2l.1.1a2.072,2.072,0,0,0,.8.1,9.339,9.339,0,0,0,3.7-1.3q2.6-1.35,2.6-2.25m-23.45-22.3a.731.731,0,0,1-.15-.25,6.6,6.6,0,0,0-3.9,1.1q-2,1.151-2,1.9,0,1,.2.6a3.239,3.239,0,0,0,2,.6q4-1.6,4-3.15a1.452,1.452,0,0,0-.15-.8m11.25,10.7q0-2.149-3.55-.35-3.55,1.849-3.55,2.5a1.327,1.327,0,0,0,.1.7.512.512,0,0,1,.1.2l.45.1a6.392,6.392,0,0,0,1.15.1,7.5,7.5,0,0,0,3.1-1.1q2.2-1.2,2.2-2.15m18,22.4q1.6-1.3,1.6-1.95a1.327,1.327,0,0,0-.1-.7.512.512,0,0,1-.1-.2,5.415,5.415,0,0,0-3.9,1.4q-1.9,1.45-1.9,1.85,0,.3,1.7,1.05a6.335,6.335,0,0,0,2.7-1.45M543.9,8.2a.512.512,0,0,1-.1-.2,4.643,4.643,0,0,0-3.4,1.7q-.9.95-2.1,2.2a2.225,2.225,0,0,0,.45.4,1.756,1.756,0,0,0,.95.2,5.5,5.5,0,0,0,2.5-1.5Q544,9.5,544,8.9a1.327,1.327,0,0,0-.1-.7M529.4,6.5q.2.25.2-.75a14.983,14.983,0,0,0-.55-3.2A6.735,6.735,0,0,0,528.1,0Q527,1.05,527,4.95v1q.2.851,1.3.85,1,0,1.1-.3M514.2,4.1l-.1.75a10.129,10.129,0,0,0,1,2.65q1.2,2.5,2.2,2.5a1.159,1.159,0,0,0,.8-.2l.2-.2q.1.1.1-.9a5.161,5.161,0,0,0-1.15-2.6A3.854,3.854,0,0,0,514.2,4.1Z"/><path class="b" d="M1052.1,200.95q1.7-1.45,3.85-2.95-18.45-1.25-37.85-2.35h-96l-18,1.2-50.8.4-15.6,1.2-61.2.4q-103.05,3.551-158.2,8.8-29.55,3-47.55,4.65-31.65,2.9-71.85,5.35H427.3q-82.35-2.25-189-13.25-30.45-3.15-78.8-8.75-31.3-3.665-48.25-5.5h-1.7q-4.8-.551-9.25-1.45-1.367-.3-2.55-.55-10.451-1.484-17.45-2.7H36.4v.25Q17.45,187.05,0,188.6q2.45,1.05,5.15,2.35,14.3-1.1,29.65-2.05H81.7q1.069.065,11.5,1.65h1.35q8.9.445,12.6.9a2.5,2.5,0,0,0,0-.3c.3.033.617.067.95.1q2,.3,7.6,1.2.8.8,12.8,1.6,39.5,3.8,77.95,8.85,20.951,2.749,57.3,7.6,63.4,7.75,165.55,10.75h67.2q40.3-2.8,73.8-5.95,18.551-1.75,48.45-4.7,52.35-4.85,152.95-8.15l60.8-.4,15.6-1.2,50-.4,18-1.2h108.8Q1038.85,200.049,1052.1,200.95Z"/><path class="c" d="M531.1,117.75a2.838,2.838,0,0,1-.55-.05q-.55.45-1.35,1.05-3.649,2.9-4.2,3.3-.55.5-3.35,3.45a12.241,12.241,0,0,1-1.2,1.15,18.422,18.422,0,0,1-1.3,1.35A146.6,146.6,0,0,1,505,138.9a78.278,78.278,0,0,0-12.5,10.9q-3.551,3.649-10.1,11.2-.35.4-12.35,12.45-2.85,2.85-4.75,4.9v.1a6.7,6.7,0,0,0-.55.5,13.655,13.655,0,0,0-1.55,1.6.325.325,0,0,0,0,.25,4.481,4.481,0,0,0-1.7,3.15.9.9,0,0,0,.15.45,1.11,1.11,0,0,0,.95.4.831.831,0,0,0,.25-.05v.05a5.918,5.918,0,0,0,1.3.2q.7.15,1.5.3a28.416,28.416,0,0,0,3.95.15,9.8,9.8,0,0,0,2.25-.1,3.68,3.68,0,0,0,.6.05l2.95.05q4.55-.25,10.45-.4l27.55.1,10.4-.4.45.1,7.5.1q-.251-1.95-.45-5.5-.3-7.65-.3-7.7,0-2.3.1-3.6-.1-2.3-.15-4.4.049-2.149.65-13.2.25-4.2.4-6.9V140.7l-.2-.45V125.5q-.1-1.549-.15-2.65a40.649,40.649,0,0,0-.55-5.1M459.6,53.1a2.084,2.084,0,0,0-.45-1.1,1.348,1.348,0,0,0-.35-.25q-1,.349-2.2.85a81.69,81.69,0,0,0-15.75,13.9q-1.506,1.65-3.3,3.8-4.4,5.331-10.55,13.75a88.974,88.974,0,0,1-6.9,8.45,61.276,61.276,0,0,1-10.7,8.8,55.651,55.651,0,0,0-9.75,8.45q-2.8,2.951-7.6,8.8a186.727,186.727,0,0,1-13.85,14.2,39.519,39.519,0,0,1-4.65,4.35q-6.75,6.15-8.05,7.45-5.149,4.849-8.55,8.5-2.95,3.2-7.4,8.6-2.05,2.5-3.55,4.35-2.75,3.3-3.65,4.3-.6.7-9.8,7.65a1.655,1.655,0,0,0-.25.2q-7.5,5.95-8.55,8a1.01,1.01,0,0,0-.35.7.54.54,0,0,0,.15.4,1.481,1.481,0,0,0,1.15.35l4.3.05q6-.45,8.5-.75a9.548,9.548,0,0,0,1.15-.15q3.15-.1,3.55-.1l37.05.25a30.128,30.128,0,0,1,3.55-.2q1-.049,2.2-.1,2.75-.049,5.35-.1.45-.1,13.8-.2,6.7-.05,13.3-.05,5.051-.15,11.2-.7,6.3-.6,8.7-.65l13.5.05q.7-.049,1.4-.05v-.05l8.5.05q-.15-1.451-.15-1.85a18.156,18.156,0,0,1,.4-4.65,2.6,2.6,0,0,1-.05-.3q.3-6.9.4-10.3.049-2.051.3-6.35.05-.6.05-1.1.2-1.15.4-2.25.3-4.8.4-12.85v-9.6q.05-11.051-.3-16.4l.05-20.65q0-5.5-.25-12.55-.551-3.15-.8-5.05a41.819,41.819,0,0,1-.35-8.15l.05-8.45q-.1-1.2-.2-2.2v-.25q-.1-1-.2-2.2-.1-.7-.3-2.2-.25-1.7-.3-2.25-.2-1.5-.3-2.2m137.1,1.45q-.15-.9-.25-2.25v-.4q-.1-1.249-.15-2.1-.8-.349-2.8,1.45-.8.75-1.8,1.8-2.9,3.05-9.8,11.9-3.049,3.85-7.3,8.4A110.047,110.047,0,0,1,565.8,82q-13.549,11.7-17.15,17.05A32.69,32.69,0,0,1,545.3,103q-2.8,2.951-4.3,4.5l-.25.25q-.9.913-1.65,1.75a3.3,3.3,0,0,1-.2.35,14.1,14.1,0,0,1-2,2.55,28.9,28.9,0,0,1-2.85,2.5L533,115.95a1.382,1.382,0,0,0,.05.3,4.965,4.965,0,0,1,.35,1V133.5q.2,4.1.45,6.5l-.05,19.4q-.3,2.85-.6,7.3-.05.8-.1,1.45.049.55.1,1.35.049.45.55,4.7.251,1.8.35,2.95h.1a2.711,2.711,0,0,0,.55.3,10.172,10.172,0,0,1,1.2-.6,50.045,50.045,0,0,0,7.95-6.45,79.749,79.749,0,0,0,7.15-8.4q4.3-5.8,6.4-8.7,3.75-5.051,6.5-8.05.5-.45,6.35-5.5,7.3-6.25,11.8-10.3,4.5-4,7.8-7.15.75-.85,1.65-1.75,1.85-1.9,2.1-2.15a27.1,27.1,0,0,0,1.85-2.2,16.824,16.824,0,0,1,2.6-3,.044.044,0,0,1,.05-.05.57.57,0,0,1,.1-.15.762.762,0,0,1,.25-.3q.1-.45.2-1a14.817,14.817,0,0,0,.25-2.6v-1.35q-.1-6.472-.9-26.75-.75-18.35-1.35-26.45m125,123.65q-9.9-7.8-11.2-9.1-2-2-7.25-8.45a101.153,101.153,0,0,0-8-8.95q-13.35-12.45-18.8-17.8-9.6-9.35-15.9-16.75l-.4-.5q-3.25-3.8-9.25-10.4Q647.851,103,644.15,99q-5.2-5.6-9-9.8-3.949-4.4-6.35-7.3-3.08-3.687-7.25-8.3-.3-.316-.6-.65-5.25-5.65-7.8-8.4-3.8-4.15-4-4.4a36.38,36.38,0,0,1-3.35-4.3,5.426,5.426,0,0,1-.7-.75q-.45-.5-1.1-1.35a2.007,2.007,0,0,1-.25-.3q-2.55-1.85-4.15-3-.75-.551-1.35-1a3.442,3.442,0,0,0-.4.1,2.454,2.454,0,0,0-.25.75,14.242,14.242,0,0,0-.1,2.05v.3q0,.851.1,4.4a18.816,18.816,0,0,0,.55,4.1q.25,6.95.8,18.55.6,11.749,1.2,24.1v7.1a9.991,9.991,0,0,1,.4,1.1q0,.65-.05,1.4-.1,4.35-.1,6.2,0,1.25.25,7.6.3,6.85.5,8.95.15,1.549.15,3.7a4.483,4.483,0,0,0-.15.55l-.05,17.05a75.215,75.215,0,0,0-.45,9.55q0,1.8.05,4.35.1,4,.3,6.1.05.6,0,2.85a18.817,18.817,0,0,0,.2,3.15,4.255,4.255,0,0,0,1.6,2.85.448.448,0,0,1,.2-.05,5.029,5.029,0,0,1,1.15,0,9.463,9.463,0,0,1,1.35.05l2.85.05a3.3,3.3,0,0,0,.2-.35q7.25.2,15.1.5l22,.3a23.281,23.281,0,0,0,3.85.3l13.95.25.8.2,22.3.3.8.2q25.6.2,36.25.4,5.351.1,5.55.1a1.456,1.456,0,0,0,1.05-.3h1.5q.8,0,.8-.9,0-.949-1.65-1.85a8.411,8.411,0,0,0-.8-.35Q728.351,183.5,721.7,178.2Z"/><path class="d" d="M461.55,52.3a1.119,1.119,0,0,0-.05.35.831.831,0,0,1-.05.25q-.05.45-.1,1.35a.448.448,0,0,0-.05.2v.8a2.792,2.792,0,0,0,.1.65v.65a3.271,3.271,0,0,1,.1.8v.2q.05.7.15,1.55a46.954,46.954,0,0,1,.35,4.7v1.75q.3,2.55.3,3.1a4.862,4.862,0,0,1-.15,1.35q.3,7.3,1.1,21.25.35,6.35.75,12.6a23.683,23.683,0,0,0-.25,3.55l.4,11.05q.35,11.55.35,14.1,0,2.9-.5,10.7-.4,7-.3,10.5l-.05,9.4q-.1,1-.1,2.9a27.936,27.936,0,0,1-.1,2.8q-.05.45-.5,2.85-.1.5-.15.9l-.15.6a2.4,2.4,0,0,0-.15.7,14.074,14.074,0,0,1-.3,1.85,3.167,3.167,0,0,0-.15,1.15.541.541,0,0,0,.25.4l.1.1a.892.892,0,0,0,.85.45q2.449,0,7.95-7.7a51.335,51.335,0,0,1,7.65-7.9q3.55-3.1,8.05-7.85,6.15-6.5,7.4-7.75,2.05-2,19.55-17.45,12.8-11.25,14.2-13.4a.044.044,0,0,0,.05-.05q-.4-.251-.95-.6-.5-.4-.95-.75-.551-.3-1.15-.7a33.372,33.372,0,0,1-2.85-2.1,20.687,20.687,0,0,1-2.85-3.3c-.191-.178-.39-.362-.6-.55q-1.292-1.249-2.8-2.8-3.35-3.4-3.95-3.95-2.4-2.2-9.15-8.95-5.3-5.25-9.6-8.75a97.974,97.974,0,0,1-8.75-8.5q-7.15-7.5-8.6-8.9a56.026,56.026,0,0,1-5.05-4.65l-3.2-3.2-.35-.35-1.4-1.4a.448.448,0,0,0-.05-.2,15.377,15.377,0,0,1-3-2.45Q462.1,52.9,461.55,52.3Z"/><path class="a" d="M535.75,19.8q-.5-.4-.95-.75.649.6,1.45,1.35a4.809,4.809,0,0,0-.5-.6m32,31.35A177.012,177.012,0,0,1,552.8,38.1q-6.1-5.55-10.85-9.9-1-.9-1.95-1.75-10.249-9.35-13.65-12.6c-.2.133-.383.267-.55.4q-5.4,4.35-8.45,7.3-1.75,1.95-7.2,8.2-4.9,5.6-7.5,8.05-1.7,1.5-3.15,2.9l-.6.6q-1.95,2.25-3.25,4-3.949,5.1-5.55,6.75-.95.95-3.05,2.65-2,2.35-3.7,4a36.438,36.438,0,0,0-3.9,4.8q-.9,1.249-1.4,1.95,0,.05.35.35v.05a.512.512,0,0,1,.1.2l.25.1a.145.145,0,0,1,.1.05q.55.5,1.5,1.3,2.8,2.35,4.15,3.7a81.8,81.8,0,0,1,5.8,6.15,75.211,75.211,0,0,0,12.05,12.3A145.193,145.193,0,0,1,514.8,101.8a66.918,66.918,0,0,0,6,5.95c.086.07.169.137.25.2q.7.55,4.3,3.4.75.6,1.35,1.05a9.937,9.937,0,0,0,2.95,2.15q0,.5.1.45l.55.1q.465,0,7.6-7.35,1.291-1.329,2.8-2.9,8.95-9.25,11.6-12.25,2.6-2.9,8.05-8.5a104.835,104.835,0,0,0,8.6-6.85,36.671,36.671,0,0,0,2.95-3.3,20.423,20.423,0,0,1,3.7-3.6,28.9,28.9,0,0,0,3.85-3.3,8.643,8.643,0,0,0,2.25-3.2q-.9-.851-4.1-4A93.686,93.686,0,0,0,567.75,51.15Z"/><path class="e" d="M598.5,118.3q-.1-.7-.7-.35a4.005,4.005,0,0,0-1.05,1q-.15.2-.65.9a8.77,8.77,0,0,1-.75.9q-1,1.249-1.55,1.85a8.012,8.012,0,0,1-2.35,1.7,8.032,8.032,0,0,0-2.45,1.75q-1.1,1.15-1.65,1.7-.4.4-1.35,1.55a6.682,6.682,0,0,0-.7.9,1.655,1.655,0,0,0-.25.2q-18.2,13.4-26.95,26.8a50.067,50.067,0,0,1-5.5,6.35q-2.149,2.149-7.4,6.95-3.7,3.45-5.9,5.6v.15l-.35.4a1.655,1.655,0,0,0-.2.25q-.7.7-2.05,2.2a.044.044,0,0,1-.05.05l-.15.15a24.373,24.373,0,0,0-3.6,4.8.407.407,0,0,0,.1.3l3.9.1a13.091,13.091,0,0,1,1.55.2h3.25q.6.1,1.6.25.551.05,1.15.15,3.049,0,5.95.05l11.95.2q1.15.2,4.5.6a25.279,25.279,0,0,1,3.05.45l24.7.3,1.1.1q1.249.1,1.85.1h1.2v-.05q.45-.2.6-1.15v-1.9q0-.851-.3-3.65a8.226,8.226,0,0,1,.05-.9q0-.9-.1-4.9l.05-8.85q0-2-.05-4.65.1-3.55.25-9.1.251-7.4.25-7.65-.05-10.85-.55-16.5.15-3.7.15-6.1A5.969,5.969,0,0,0,598.5,118.3Z"/><path class="f" d="M274.45,149.75a1.47,1.47,0,0,1-.55-.1,1.8,1.8,0,0,0-1.25,1.85,1.428,1.428,0,0,0,.6,1.35,7.96,7.96,0,0,0,3.5.5q5.2,0,10.5-5.2a29.133,29.133,0,0,0,2.75-3c.142-.2.292-.434.45-.7a11.058,11.058,0,0,0,1.4-3.2q.13-.617.25-1.1l-.05-.05q0-2.351-1.7.25-.234.351-.45.65c-.148.118-.332.252-.55.4v.5a2.112,2.112,0,0,1-.25.45q-1,.9-2.3,1.9-7.1,5.5-12.35,5.5M261.1,151.5a3.552,3.552,0,0,0-.35.2,3.435,3.435,0,0,0-.6-.05q-.949.35-2.3.7a19.268,19.268,0,0,1-4.9.7q-1.15,0-7.1-2.6a13.482,13.482,0,0,0-1.65-.6.7.7,0,0,0,.05-.2q-.466-.179-.95-.4-.5-.274-.9-.5a.882.882,0,0,0-.2.25q-.471.762-.75,1.2a8.84,8.84,0,0,0,1.05,1.8h0l.1.05q.657.406,1.4.85a39.182,39.182,0,0,0,4.1,1.85,21.962,21.962,0,0,0,5.55.95l4.6.05a8.4,8.4,0,0,0,1.05-.2,2.984,2.984,0,0,0,.55.05,4.018,4.018,0,0,0,3.25-1.3,2.819,2.819,0,0,0,.75-1.8q0-2-1.45-1.6a2.492,2.492,0,0,0-.9.4l-.4.2m11.8-20.25a4.258,4.258,0,0,0-4.15-1.25,6.3,6.3,0,0,0-4.1,2.85,10.948,10.948,0,0,0-1.9,6.55,6.237,6.237,0,0,0,.8,3.15,4.94,4.94,0,0,0,2.9,2.25,16.145,16.145,0,0,1-.55,2.25c-.015.074-.032.141-.05.2a1.442,1.442,0,0,0-.3.4q-.251,1.35-1.65,6.85-1.249,5-1.25,5.45a27.036,27.036,0,0,1-1.15,6.4,34.135,34.135,0,0,0-1.15,5,2.247,2.247,0,0,0,1.1,1.8,6.764,6.764,0,0,0,3.75,1.1q-.15,1.96-.15,3.85l.4,4.65a29.136,29.136,0,0,0,.55,3.15,7.911,7.911,0,0,0-.2,1.9q0,.064.05.75a4.786,4.786,0,0,0-1.05,1,2.044,2.044,0,0,0-.2,1v.5q.15.45,1.05.45a3.317,3.317,0,0,0,1.25-.15.694.694,0,0,0,.35-.4h.1q1.6,0,1.6-3.65,0-.608-.05-1.1a.7.7,0,0,0,.05-.25l-.3-10.5a2.9,2.9,0,0,0-.3-1.35,17.874,17.874,0,0,0,6.25-1.8,9.23,9.23,0,0,0-.45,3q0-.2.8,5.85a19.936,19.936,0,0,0,1.2,4.1v.15a2.259,2.259,0,0,0,.25.8,1.91,1.91,0,0,1,.25.75,2.672,2.672,0,0,1-.7,1.15,4.085,4.085,0,0,0,.1.45,1.091,1.091,0,0,0,1,.4,3.845,3.845,0,0,0,2.4-.6,1.327,1.327,0,0,0,.55-1.05,1.517,1.517,0,0,0-.25-.8,2.461,2.461,0,0,0,.2-1.05,24.418,24.418,0,0,0-.3-4.7q-.649-2.5-1.5-6.4a11.837,11.837,0,0,0-.7-3.85q3.4-2.656,3.4-4.85a46.943,46.943,0,0,1-3.55-3.4,16.2,16.2,0,0,1-4.45-8.9,55.426,55.426,0,0,1-.45-6.3q-.048-1.606-.1-2.85a4.984,4.984,0,0,0,1.85-2.45,13.888,13.888,0,0,0,.6-4.65q0-3.9-1.85-5.85M781.35,154.5l-.6.5a30.054,30.054,0,0,0-5.55,6.8,13.047,13.047,0,0,0-.8,1.45,11.794,11.794,0,0,0-.7,1.4,33.356,33.356,0,0,0-1.6,5.65q-2.6-.35-3.35-.35-3.45,0-5.1,1.8a3.731,3.731,0,0,0-1.1,2.55,3.61,3.61,0,0,0,.5,1.95,8,8,0,0,0,1.85,1.95q1,.851,6.65,1.85a49.157,49.157,0,0,0,7.4.9q4.35,0,5.45-1.15a2.771,2.771,0,0,0,.35-1.75,2.06,2.06,0,0,0,.05-.9,5.28,5.28,0,0,0,2.5-3.3,19.966,19.966,0,0,0,2.05.1,10.475,10.475,0,0,0,1.05-.05,4.154,4.154,0,0,0,.4,1.55q3,.456,5.35.7,1.465-1.493,3.85-4,.217-.212.4-.4c0-.162,0-.329,0-.5q-.049-.9-.05-7.8l-.05-.1a15.568,15.568,0,0,1-1.5,2.35q-1.75,2.25-3.25,2.25a13.14,13.14,0,0,1-4.6-1.3,10.575,10.575,0,0,0-.4,1.7q-.088.571-.15,1.55-.481-.2-1.05-.4-2.952-.885-5-1.55.318-3.313-.45-4.3a.674.674,0,0,0-.1-.1l-.05-.8.35-4.05a2.288,2.288,0,0,0,.8.15,1.934,1.934,0,0,1,1.55-.95,4.717,4.717,0,0,0,3.85-2.85q.8-1.55,1.3-2.7.245-.54.4-1a26.331,26.331,0,0,0,.25-3.85,2.241,2.241,0,0,0-1.15-1.95,3.233,3.233,0,0,0-.6-.35,5.846,5.846,0,0,0-3.8-.25q-5.55,1.3-5.55,8.5l.2,1.05m64.75-47a3.588,3.588,0,0,0-3.35-1.55A4.542,4.542,0,0,0,839.4,108a8.3,8.3,0,0,0-1.55,5.15l.75,3.85a7.157,7.157,0,0,0,1.25,2.25q-.26,1.077-.75,2.55-1.1,3.3-1.25,3.85-.5,1.8-5.75,7.8-4.9,5.651-4.9,7.9a6.953,6.953,0,0,0,1.25,3q1.549,2.45,3.25,2.45a1.036,1.036,0,0,0,.65-.3c-.067-.3-.133-.617-.2-.95q-.45-3.551-.45-3.6a3.977,3.977,0,0,1,1.15-2.85l-.05-.2q0-.649,2.3-3.35,2.4-2.651,2.55-2.85l.05.15a19.128,19.128,0,0,0,.25,2.8,25.5,25.5,0,0,1,.2,2.65,63.141,63.141,0,0,1-1.4,10.85q-1.45,7.35-1.45,8.35v1.3a1.528,1.528,0,0,0,1,1.15q-.1.5-.2,1.15a19.7,19.7,0,0,0-.55,3.25q-.049,1.05-.25,3.25-.25,2-.75,7.4-.45,5.2-.45,5.8,0,.1.2,1.7a2.764,2.764,0,0,0,2.9,1.65q1.9,0,1.9-2.65a16.987,16.987,0,0,0-1-2.35,9.29,9.29,0,0,1-1-3.85,45.31,45.31,0,0,1,1.5-10.25q1-4.151,1.35-6a4.478,4.478,0,0,0,.7-1.5,29.572,29.572,0,0,0,.25-3.3l.15.3q.05.8,0,3.6c.033.167.067.35.1.55q-.1,1.2-.25,4.6-.2,4.6-.2,10.1v5.05q.45,3.551,3.1,3.55,1.3,0,1.3-1.5-.3-.6-.65-1.45a9.824,9.824,0,0,1-.75-3.5q-.2-3.4-.2-5.05l-.3-9.95q1.1-.551,1.1-3.9a4.329,4.329,0,0,0-.2-.95V145.6a5.31,5.31,0,0,1-.2-1.35,18.426,18.426,0,0,1,.5-2q.2-.7.35-1.45,2,5.2,4.35,5.2a1.089,1.089,0,0,0,1-.7,1.779,1.779,0,0,0,.2-.8,24.839,24.839,0,0,0-1.6-3.3q-1.9-3.55-2.5-5.05a12.032,12.032,0,0,1-.7-2.25,15.051,15.051,0,0,0-.6-2.1,4.16,4.16,0,0,0-.85-1.85q-.15-1.65-.15-2.7a25.226,25.226,0,0,1,.35-3.45q.251-1.95.3-3.1l-.05-.05a3.591,3.591,0,0,0,2.15-1.95,12.269,12.269,0,0,0,1-5.5,9.007,9.007,0,0,0-1.55-5.7M192.4,184.8l-.2.05-.05.55c.017.034.033.051.05.05l.2-.65m-34.75-55.05a5.6,5.6,0,0,0-1.8-4.15,6.479,6.479,0,0,0-3.95-1.95,4.693,4.693,0,0,0-3.95,1.25q-1.8,1.75-1.8,5.4a6.506,6.506,0,0,0,1.65,4.3,3.3,3.3,0,0,0,.35.35,13.16,13.16,0,0,0-1.3,2.3q-.586-.388-2,.6a14.5,14.5,0,0,0-3.45,3.4q-1.05,1.451-4.35,2.6-2.7.95-2.7,2.35,0,.1,1.55,2.65,2.55,2.5,7.55,2.5h.3q-.15,2.149-.15,4.3v.9q-.04.94-.1,2.05-.15,2.8-1.4,11.35-.039.276-.1.55-.411,3.075-.7,4.95-.35,2.8-.35,3,0,.05.05.9a1.174,1.174,0,0,0,.25.5,1.383,1.383,0,0,1-.85.8q-.851.45-.85.95,0,1.55,2.9,1.55,1,0,1.15-.7a6.311,6.311,0,0,1,0-1.15l.95-2.4.45-4.8q.286-2.65.45-4.6h0q.75-2.791,1.2-4.9c.093.069.177.136.25.2a9.821,9.821,0,0,0,2.45,1.6,43.686,43.686,0,0,0,.75,6.4q.147.765.5,2.3.189,1.3.55,3.5a8.211,8.211,0,0,1-.4,2.6,1.365,1.365,0,0,0,.8,1.3,1.543,1.543,0,0,0,.45.8,4.568,4.568,0,0,0,3.15.85q1.4,0,1.4-1.25a7.662,7.662,0,0,1-.95-1.05,5.92,5.92,0,0,1-1.1-3.05q-.25-3.75-.25-4.35l-.3-8.55q-.019-.444-.1-1.25a2.244,2.244,0,0,0,.1-.35,17.113,17.113,0,0,0,.2-3q0-2.651-.3-6.2-.3-3.851-.35-6.7v-2.25a14.848,14.848,0,0,0,6.25,1.8,1.226,1.226,0,0,0,1.35-.85,7.154,7.154,0,0,0,.05-1.2,7.309,7.309,0,0,0-.6-2.45q-.6-1.5-.6-1.55a1.016,1.016,0,0,1,.2-.55,1.016,1.016,0,0,0,.2-.55,14.193,14.193,0,0,0-.9-2.6q-1.05-2.449-1.1-2.65a21.264,21.264,0,0,1-.6-2.55,3.675,3.675,0,0,0-.35-.7,12.226,12.226,0,0,0,.25-2.55m-3.9,8.3q.048-.684.05-1.3a3.428,3.428,0,0,0,1.75-.8,29.175,29.175,0,0,0,2.05,7.5q-1.249-2.1-2.05-3.4a6.529,6.529,0,0,0-1.8-2m-8.1,2.75h0l.05-.1a.187.187,0,0,1-.05.1m-1.95,7.45a20.468,20.468,0,0,1-2.75-1.3,18.71,18.71,0,0,0,3.7-1.85q-.33,1.694-.55,3.35c-.13-.067-.263-.133-.4-.2m68.75-22.95a8.849,8.849,0,0,0-3.1,6.3,2.211,2.211,0,0,0-.6.75q-.5,1-1.4,3.25a23.484,23.484,0,0,0-2.2,4.8q-3.963,1.906-4.05,1.95a16.153,16.153,0,0,1-3.25.8,17.392,17.392,0,0,1-1.75.7,28.288,28.288,0,0,1-10.15,1.5h-2.2a2.339,2.339,0,0,0,1.55,1.05,36.934,36.934,0,0,0,6.45.7h6.6a13.5,13.5,0,0,0,4.85-.55q-.37,1.434-.9,3.75a38.25,38.25,0,0,1-1.35,4.8,24.778,24.778,0,0,1-4.3,6.15q-3.1,3.6-3.1,3.65v.05c.067.105.133.205.2.3.052.032.135.082.25.15a4.307,4.307,0,0,0-.05.7,1.253,1.253,0,0,0,.5.9q1.151.9,1.4,1.15-1.9,3.4-3.3,3.4-2.051,0-4.05-2.8t-4.35-2.8a2.582,2.582,0,0,0-1.85.95,2.223,2.223,0,0,0-.75,1.35q0,.45,3.5,3.9.4.45,1.65,2.3a5.689,5.689,0,0,0,4.35,1.7q3.7,0,7-3.8a20.085,20.085,0,0,0,1.7-2.2,1.99,1.99,0,0,0,.25.3q1.935-3.48,3.15-6.2.129.918.25,2.15a18.113,18.113,0,0,0,.8,2.95,4.575,4.575,0,0,1,.4,1.4,1.905,1.905,0,0,1-.2.4.732.732,0,0,0,.2.8,3.686,3.686,0,0,0,1.95.75q-.2,2.655-.2,3.5l.6,7.45q.792,6.208,2.2,7.25.594.03,1.25.05a.934.934,0,0,0,.4-.3,3.316,3.316,0,0,0,.85.1,11.478,11.478,0,0,0,4.15-.5,1.153,1.153,0,0,0,.75-1.1q0-1.05-2.35-1.35-2.4-.3-2.65-3.1l-.45-4.95v-6.7h.25q1.15,0,1.45-.7a1.317,1.317,0,0,0-.1-1v-10.8q.243-3.069,1.55-13.4.55.427.95.8a18.43,18.43,0,0,0,8.05,4.6,44.921,44.921,0,0,0,9.9.8q2,0,2-1.2,0-1.3-5.65-2.85-6.8-1.8-7.9-2.55a41.441,41.441,0,0,1-4.55-4.15q-1.206-1.245-1.95-2,.3-2.31.4-3.5,3.318-.375,5.25-5.25a16.589,16.589,0,0,0,1.4-5.7A3.142,3.142,0,0,0,221,124.2a5,5,0,0,0-3.75-1.55q-2.05,0-4.8,2.65m723.7,48.25a8.068,8.068,0,0,0,.7-3.45,4.473,4.473,0,0,0-1.95-4,5.928,5.928,0,0,0-4.3-.85,7.19,7.19,0,0,0-4.3,2.15,6.812,6.812,0,0,0-1.95,4.95q0,.9,1.4,2.1a8.958,8.958,0,0,0,6,1.8,4.454,4.454,0,0,0,4.4-2.7m8.6-25.35q0,.05.1.6.45.55,2.3.55a12.224,12.224,0,0,0,2.55-.2c.024.024.04.041.05.05a31.65,31.65,0,0,0,6.05-1.65q4.05-1.55,4.35-1.65.528-.164.95-.3.495,1.338,1.2,3.15a45.081,45.081,0,0,1,2.05,13.45,22.537,22.537,0,0,1-2.2,9.55q-1.15,2.4-2.25,4.75a1.386,1.386,0,0,0,.1.6q.251.551,1.15.55a1.94,1.94,0,0,0,1-.4,1.821,1.821,0,0,1,.9-.45,4.936,4.936,0,0,1,2.05.35q.15,0,.65-1.6a2.208,2.208,0,0,0,.1-.25,34.56,34.56,0,0,0,2.7-7.3q2.149-7.549,2.2-9.85h.1q3.1,6.3,4.15,8.2a24.6,24.6,0,0,0,3.4,5.1q.359.756.8,1.7,1.549,2.6,3.35,2.6,1.2,0,1.2-1.5-.851-2.4-1.9-4.8-.48-1.06-.9-1.9a67.769,67.769,0,0,0-4.85-9.15q-5.8-9.7-5.95-10.15-.693-3.074-1.3-5.5,7.957.9,8.1.9a15.218,15.218,0,0,0,5.4-1.3,12.515,12.515,0,0,0,2.8-1.35q3.35-1.242,3.35-1.95,0-1.1-1.25-.95-2.05.45-3.7.8h-8.8q-4.1-.15-6.2-.45c-.347-.066-.664-.132-.95-.2-.081-.269-.164-.535-.25-.8a20.214,20.214,0,0,0-2.6-5.4,3.572,3.572,0,0,0-.75-1.1,3.869,3.869,0,0,0,.05-.65,6.654,6.654,0,0,0-1.75-4.5,7.869,7.869,0,0,0-3.9-2.35,4.953,4.953,0,0,0-3.9.35,4.078,4.078,0,0,0-1.75,3.75q0,.039.65,1.95a12.7,12.7,0,0,0,3.15,3.05q.968.724,1.9,1.35a9.215,9.215,0,0,0,1.65.2q.166.472.35,1c.045.021.079.038.1.05v.1q.528,1.32,1.3,3.1-.384.242-.85.55a36.358,36.358,0,0,1-4.7,3.35,47.255,47.255,0,0,1-6,3.25q-.8.35-4.1,1.3-1.451.4-1.45,1.4m-35-16.05q-.8-1.7-4-1.7a7.03,7.03,0,0,0-5.9,2.8,7.238,7.238,0,0,0-1.6,4.35q0,.069.3,1.4a.5.5,0,0,1-.1.15q-.648.669-1.2,1.25a.52.52,0,0,1-.1.1q-6.3,4.65-8.1,5.75-2.7,1.6-7.25,4.5-1.662,1.064-2.95,1.9a4.385,4.385,0,0,0-1,.3q-.39.291-.8.6-2.019,1.533-3.15,2.25a1.911,1.911,0,0,0-.35,1c0,.033.017.15.05.35a.63.63,0,0,0,.65.35,12.258,12.258,0,0,0,2.55-1.95q.72-.182,1.45-.35.5-.1,5.8-2.85a21.172,21.172,0,0,1,2.5-.95l-.85,1.4a14.582,14.582,0,0,0-1.2,3.7q-.27,1.161-.45,2.05a11.349,11.349,0,0,1,.45,1.95q.3,2.05.45,4.65,0,2.9-4.85,7.4-2.971,2.769-4.85,4.6a.591.591,0,0,1-.1.1q-1.9,1.6-1.9,2.4c0,.033.017.2.05.5q.15.5.85.5.483,0,4.65-3.05a16.58,16.58,0,0,0,3.65-2.3q.408-.447,1-1.05a15.838,15.838,0,0,1,1.5-.9,8.525,8.525,0,0,0,3.55-3.65q.277-.475.5-.95.485.454,1.05.9a12.065,12.065,0,0,0,4,2.3q.15.05,4.45,3.3a19.955,19.955,0,0,0,6.05,3.15l.15.35a2.772,2.772,0,0,0,2.35,1.05,5.27,5.27,0,0,0,2.8-1.45l.25-.2a33.528,33.528,0,0,1-4.75-2.7q-1.979-1.3-3.4-2.35a22.657,22.657,0,0,1-4.2-3.4q-6.4-7.25-6.4-8.85v-.2c-.075-.246-.159-.479-.25-.7q.444-.823,1.45-2.45,2-3.2,2.2-3.65v-.05q.188.738.4,1.45,1.606,5.4,4.55,7.3a8,8,0,0,0,2.55,2.55c.145.076.279.143.4.2l2.45-.05q-2.55-.649-4.5-5.35-.635-1.518-1.05-2.85-.284-.636-.5-1.25a1.167,1.167,0,0,0-.2-.1,14.5,14.5,0,0,1-1.4-6.45,50.277,50.277,0,0,1,2.85-4.9q.238-.41.45-.8a1.064,1.064,0,0,1,.2-.55,6.767,6.767,0,0,1,1.6-.3,15.7,15.7,0,0,0,1.7-.2,23.513,23.513,0,0,1,2.2-.9,4.555,4.555,0,0,0,1.4-1,8.294,8.294,0,0,0,.9-1.55,12.832,12.832,0,0,0,1.2-5.1A2.407,2.407,0,0,0,909.75,132.15Z"/></svg>