<svg xmlns="http://www.w3.org/2000/svg" viewBox="0 0 103.25 187.7"><defs><style>.a{fill:#fc4d30;}.b{fill:#ffb052;}.c{fill:#190fa0;}</style></defs><title>T4a</title><path class="a" d="M72.7,182.8q-4,.2-4.3.3H62.8a20.736,20.736,0,0,1,.55,3.95q.05.949.05,5.55l-.25,12.3a17.486,17.486,0,0,0-.55,3.1,1.391,1.391,0,0,0,.15.7c-.054.071-.1.137-.15.2l.2.1a12.332,12.332,0,0,0,3.7-3.5q8.871-7.671,10.7-9.5,5-5.7,7.35-8.4a36.747,36.747,0,0,1,4.55-4.5,4.967,4.967,0,0,1,.6-.6,2.5,2.5,0,0,1-.3,0H76.9q-.251.1-4.2.3M83,138.3q.351-.237.8-.55l.85-.6a99.2,99.2,0,0,0-12.9-1.25l-10.5.2q-3.65.45-4.15.45a8.591,8.591,0,0,1-.95-.05,9.341,9.341,0,0,1,.1,1.05q.05,1.35.05,3.75v20.4q.075.672.1,2.15,3.51-4.016,10.9-11.3,9.339-9.209,15.5-14.25a.836.836,0,0,0,.2,0m53.05-42.4a38.219,38.219,0,0,1-5.1,4.15,38.5,38.5,0,0,0-8.35,7.8q-2.25,2.7-6.65,8.1Q109.3,123,99.2,131.85q-10.476,9.516-14.75,13.3.928-.122,2.05-.25,3.15-.35,10.1-1.1H109a42.158,42.158,0,0,0,4.25.5l6.35.1q2.15.049,6.35.45.843.078,1.55.15,1.792-.231,3.95-.45,1.925-.2,3.35-.35,1.224-.342,3.15-.7,1.493-.254,3.3-.55a17.068,17.068,0,0,1,2.15-.75,9.29,9.29,0,0,1,1.65-.35l-.2-5.2q-.35-1.8-.55-2.7a10.75,10.75,0,0,1-.3-2.7v-.45q.058-.443.15-.85a28.4,28.4,0,0,0,.3-4.95,15.406,15.406,0,0,0,.1-2.1,10.844,10.844,0,0,1,.15-2.1c.037-.176.071-.326.1-.45q-.081-.531-.2-1.05V105.2l.2-.6V96.95l.2-.45V86.45c-.017-.106-.033-.206-.05-.3q-1.551,2.063-5.05,5.95-2.5,2.5-3.85,3.8M69.1,68.15q.623.6,1.4,1.45,2.2,2.4,6.05,6.95A26.1,26.1,0,0,0,81.9,82.1q2.3,1.95,7.15,6a63.527,63.527,0,0,1,5.5,5.75q4.4,5.1,5.05,5.8,1.35,1.451,8.7,6.1a41.46,41.46,0,0,1,4.55,3.25q.557-.528,1.25-1.2a52.885,52.885,0,0,0,5.25-5.75,22.688,22.688,0,0,1,4.6-4.4q1.9-1.5,6.35-4.55a57.218,57.218,0,0,0,10.2-9.25q.55-.621,1.05-1.2h-.15q.279-.272.55-.55.538-.538,1.1-1.15,4.27-4.713,5.6-6,3.508-4.049,5.2-5.7l.05-.05-2.85.05-.45.1h-5.4q-4.2-.2-4.6-.3h-9.4q-4.05.15-7,.5L94,69.6q-1.35-.049-15.4-.95Q72.264,68.223,69.1,68.15Z" transform="translate(-56.15 -21.3)"/><path class="b" d="M134.3,149.85q-4.75.251-4.9.25H121q-12.5-1.05-12.55-1.05a66.647,66.647,0,0,0-4.65,5.65q-5.6,7.1-6.95,8.7a30.464,30.464,0,0,1-4,3.5q-3.95,3-4.65,3.6a40.2,40.2,0,0,0-3.55,3.6,29.548,29.548,0,0,1-2.15,2.15q.781-.129,1.85-.25a43.051,43.051,0,0,1,10.45.3,59.3,59.3,0,0,1,6.75,1.1q2.436.547,10.75.5,1.725-1.842,5.05-4.95,7.5-6.8,8.75-8.1,1-1.1,6.7-7.6a94.537,94.537,0,0,1,7.55-7.9l.1-.1q-2.2.35-6.15.6M157.75,21.3q-.79,1.354-2.05,3.15a33.611,33.611,0,0,1-4.6,5.65,75,75,0,0,0-11.25,11.85,46.731,46.731,0,0,1-5.95,5.65q-4.9,4.2-6.85,6.25-1.6,1.7-4.85,5.85-2.118,2.713-3.65,4.45.7-.138,1.7-.25,3.3-.349,12.65-.85a23.52,23.52,0,0,1,7.8.6q3.7,1.154,18.1,1.55l.6-10.95q-.851-14.651-.8-16.35.05-2.7-.4-8.2-.45-5.65-.45-8.1Z" transform="translate(-56.15 -21.3)"/><path class="c" d="M105,22.85q-2.171,2.964-5.75,7.75-8.8,11.664-12.4,16.8a35.8,35.8,0,0,1,3.9,2.3q2.951,1.9,7.35,4.8,2.7,1.151,9.7,5.15,3.564,2.017,5.25,3.05.656-1.415,1.85-3.85,2.65-5.3,4.4-8.35a48.513,48.513,0,0,1,4.55-6.7q1.517-1.914,3.85-4.5-5.1-.264-15-8.9Q107.216,25.065,105,22.85Z" transform="translate(-56.15 -21.3)"/></svg>