<svg xmlns="http://www.w3.org/2000/svg" viewBox="0 0 148.25 207.65"><defs><style>.a{fill:#190fa0;}.b{fill:#fc4d30;}.c{fill:#84af97;}.d{fill:#ffb052;}</style></defs><title>T4c</title><path class="a" d="M106.05,218.6q6.9.251,7.25.4l12.1.1q1.5-14.65,1.5-17.9-.4-10.8-.4-15.9l-7.75-.3-25.95.8a11.728,11.728,0,0,1-1.95-.2,4.381,4.381,0,0,1-.65-.15,4.66,4.66,0,0,1-.7.15,19.19,19.19,0,0,0,.55,3.25v13.5q0,1.35.2,3.95l.45,5.95a43.1,43.1,0,0,1-.25,7.05h.05a34.162,34.162,0,0,1,7.9-1Q99.551,218.3,106.05,218.6Z" transform="translate(-33.3 -11.65)"/><path class="b" d="M120.7,161.35a34.478,34.478,0,0,0-4.85-4.3,8.117,8.117,0,0,1-2.5-2.5Q112.1,152.5,112,152.4q-1.35-1.4-2.05-2.2v16.6a7.521,7.521,0,0,0-.15,3l.25,2.9q0,.441-.3,7.85c.145-.015.3-.032.45-.05a32.489,32.489,0,0,0,3.5-.65v-.05h5.5l2.05.25,3.95.05c.046.015.18.049.4.1H127q.65.05,4.15.25l5.25.1q.238.048,4.1.5-1.013-1.163-1.05-1.2-1.549-1.35-4.65-4.45l-9.4-9.15q-3.049-3.15-4.7-4.9m-18.5-48.8q-2.126,2.265-5.4,5.7-5.6,5.749-8.45,9.2-2.35,2.8-8.85,9a107.793,107.793,0,0,0-9,9.45q-2.5,3.049-8.7,9.25-6.7,6.649-8.9,9.2-6.436,7.4-19.6,17.45h.9q5.55,0,8.5-.25,1.6-.1,2.9-.3l12.2-.3v-.1q9.6,0,9.95.1,7.65.1,8,.2H89.8q.9-.05,2.9-.3a23.908,23.908,0,0,1,4.95.25q2.45.3,6.55.4,1,.019,1.7.1a16.484,16.484,0,0,1-.55-3.3q-.1-1.5-.1-3.7,0-3.949.45-15.45-.05-5.3,0-7.95a36.642,36.642,0,0,1,.25-3.7q-.065-1.373-.1-3.2-.049-1.1-.05-7.55,0-6.049.2-9.05V115.55q.1-4.7.35-6.9,0-.077,0-.15-.647.658-1.45,1.45Q103,111.854,102.2,112.55Z" transform="translate(-33.3 -11.65)"/><path class="c" d="M148.7,146.65q.069.232.15.5a22.9,22.9,0,0,1,.4,4.2l-.3,20.1q-.1,2.5-.4,6.85-.1,1.438-.15,3.05h1.2l1.4-.1q10.05-.1,10.4-.2l20.15-.1A33.95,33.95,0,0,1,178.9,178a45.411,45.411,0,0,0-4.7-5.2,53.814,53.814,0,0,1-5.1-4.8q-3.55-3.8-4.15-4.35a45.073,45.073,0,0,1-4.2-4.55q-3.1-3.8-3.8-4.6-3.649-3.649-4.55-4.65a21.778,21.778,0,0,0-3.15-2.75c-.2-.162-.386-.312-.55-.45M90.4,70.35a21.189,21.189,0,0,0-3.2,3.5q-1.8,2.4-2.65,3.4a94.435,94.435,0,0,1-7,6.85q-5.7,5.15-7.4,6.95a33.621,33.621,0,0,1-4,3.3Q62.2,97.3,61.4,97.95q-.6.5-3.8,3.75-.551.561-1,1a29.635,29.635,0,0,1,3.35.05H74.1q.75-.15,2.7-.45l3.3-.05a8.812,8.812,0,0,1,2.25-.2q.542-.028,1.05-.05h3.2q2.05.3,4.6.7t7.3.7q.52,0,8.05.8h.55q1.544.242,6.75.55l3.65-.2q.7-.05,3.9-.35l3.05-.1q1.731-.228,2.35-.3h3.3a.079.079,0,0,0,.05,0l1.15-.15a1.672,1.672,0,0,1,1.15-.4q.7-.049,2.75-.05,3.4-.2,5.65-.1,1.4.049,5.6.25l3.25.05.25.05,8.25.05h.45q-.462-.354-1-.8a21.253,21.253,0,0,1-4.15-4.25q-.5-.75-2.7-3.45a21.738,21.738,0,0,1-2.5-3.45q-1.35-2.7-6.15-6.9-5.7-4.65-8.05-6.9-3.8-4.5-5.8-6.8a29.82,29.82,0,0,0-8.75-7,18.91,18.91,0,0,1-4.25-3.35q-2.1-2.45-3.2-3.55A35.033,35.033,0,0,1,107.65,51a50.97,50.97,0,0,1-11.1,12.45,4.8,4.8,0,0,0-1.4,1.75,5.716,5.716,0,0,1-1.1,1.7Z" transform="translate(-33.3 -11.65)"/><path class="d" d="M110.4,109.95a21.51,21.51,0,0,1,.2,2.45q0,2.45-.35,7.7-.4,5.25-.4,7.9,0,3.95.25,9.5t.25,7.05v.1a10.624,10.624,0,0,1,4.65,3.1,53.826,53.826,0,0,1,3.75,4.65,40.214,40.214,0,0,0,9.15,9.3q4.9,3.8,5.9,4.7a13.922,13.922,0,0,1,3.75,4.6,18.911,18.911,0,0,0,3.4,4.7q1.443,1.542,4.1,4.45.292-1.1.45-2.05V178q-.8-9.9-.8-10,0-2.9.5-8.9V151a23.786,23.786,0,0,0,.15-4.1,10.618,10.618,0,0,1,.25-2.75v-.9c.028-.156.062-.306.1-.45a16.242,16.242,0,0,1-1.6-1.6q-2-2.4-2.65-3.1a36.6,36.6,0,0,0-3.45-2.9,14.4,14.4,0,0,1-1.8-1.55,40.117,40.117,0,0,1-4.7-4.25,74.528,74.528,0,0,0-7.1-6.75,64.43,64.43,0,0,1-7.7-6.9q-.1-.1-3.9-3.55-1.6-1.446-2.4-2.25m-7.3-92.2c-.123.169-.257.352-.4.55a17.033,17.033,0,0,1-2,2.4q-.65.6-2.95,2.4-5.183,5.217-7.2,7.45-3.4,3.75-4.5,4.9a65.44,65.44,0,0,1-5.35,5q-6.024,4.885-9.05,7.3-.4.387-.7.65.811.027,2.25.05l5.55-.05q5.194-.467,5.65-.55h17l.35.1q7.776.067,10.5.1h4.25q.206.026.95.15,5.826.072,6.1.15l5.05.1a24.338,24.338,0,0,0,2.55.3l7.05.05q1.274.075,4.45.45A18.469,18.469,0,0,1,140.8,47q-1.737-2.826-2.7-4.35l-2-2.1q-.4-.4-1.9-2.2-1.237-.957-2.9-2.15a48.988,48.988,0,0,1-6.4-5.2,100.534,100.534,0,0,1-7.2-8.95q-.627-.47-1.5-1.15a18.569,18.569,0,0,1-4.2-4.95q-.251-.4-.65-.95a16.619,16.619,0,0,1-2.3-3.25.511.511,0,0,1-.1-.1Q107.582,13.251,103.1,17.75Z" transform="translate(-33.3 -11.65)"/><path d="M109.85,51.8v.05l.05-.05h-.05m-41.5-1.75a.631.631,0,0,0,.25.05l.05-.05Z" transform="translate(-33.3 -11.65)"/></svg>