<svg xmlns="http://www.w3.org/2000/svg" viewBox="0 0 189.475 188.4"><defs><style>.a{fill:#ffb052;}.b{fill:#84af97;}.c{fill:#fc4d30;}.d{fill:#190fa0;}</style></defs><title>T4d</title><path class="a" d="M109.45,119.6c.007.033.007.05,0,.05a12.844,12.844,0,0,1,.15,2.05q.049,1.4,0,3.95,0,.7.5,7.8,0,1.5-.8,9.15l.05,11.3q-.15,6.4-.45,9.6a.557.557,0,0,0,0,.1q-.039.357-.1.65a26.741,26.741,0,0,1,3.6,2.55,78.852,78.852,0,0,1,7.75,7.05l10.8,11.25q1.65,1.751,5.65,5.8,3.45,3.5,5.2,5.45.85.9,2.45,2.75a23.349,23.349,0,0,0,3.5,2.95q1.2.85,4.1,2.8.387.292.7.55a.553.553,0,0,0,0-.1q0-3.7-.15-5a66.162,66.162,0,0,1-.8-8.1,126.611,126.611,0,0,1,.6-13.55.465.465,0,0,0,.05-.1,14.544,14.544,0,0,0,.7-3.2q.05-.8.05-3a26.716,26.716,0,0,0-.2-3.5,13.282,13.282,0,0,0,.3-2.65,1.538,1.538,0,0,0-1-1.5v-.1q-4.556-2.853-23.95-23.15-4.6-4.8-5.55-5.85a35,35,0,0,1-4.45-6,31.235,31.235,0,0,0-4.75-5.85Q110.856,121.105,109.45,119.6Z" transform="translate(-12.625 -20.6)"/><path class="b" d="M160.2,117.5h-8.65a44.823,44.823,0,0,1-5.35.5l-22-.1a71.664,71.664,0,0,0-12.2-.65h-.15a7.557,7.557,0,0,1,.9.85,29.382,29.382,0,0,0,3,3,20.876,20.876,0,0,1,2.7,2.85q2,2.35,2.5,2.85,1.3,1.35,4.9,5.6a57.117,57.117,0,0,0,5.35,5.65q1.6,1.45,6.95,5.8a53.9,53.9,0,0,1,6.1,5.45q1.1,1.2,5.6,6.45a28.591,28.591,0,0,0,4.5,4.45,20.46,20.46,0,0,1,1.75-1.2,1.923,1.923,0,0,0,.25-.25q2.193-2.406,2.65-3,2.1-2.75,4.85-5.85,6.2-7.1,11.05-11.85,4.249-4.25,12.85-11.85a41.4,41.4,0,0,1,3.5-2.85q1.4-1,4.1-3,.15-.1,3.55-3.15c.091-.069.174-.136.25-.2a26.3,26.3,0,0,0-3.35-.2q-11.7.9-13.6.95h-4.15a3.611,3.611,0,0,1-.45.1,38.277,38.277,0,0,1-6.4.55,60.983,60.983,0,0,1-7.2-.35q-2.5-.4-3.8-.55m-103.45.7v-.05a75.9,75.9,0,0,1-8.15.3,28.256,28.256,0,0,0-4.6-.1H34.8q-5.6-.25-5.9-.35L17,117.9q-.259-.077-.55-.15a18.047,18.047,0,0,1,4.3,3.1q2.05,2,5.65,5.95a57.181,57.181,0,0,0,5.75,5.9q4.5,4.25,6,5.95a57.137,57.137,0,0,1,4.35,5.65q1.35,1.95,4.2,6.2a60.1,60.1,0,0,0,6.2,6.5,47.045,47.045,0,0,1,3.3,3.4v-1.5a37.124,37.124,0,0,1,.4-4.35l.05-33.45q.068-2.108.1-2.85H56.7l.05-.05m-44-95.95.35,16q-.4,9.8-.4,10.85,0,.5.2,9.1v8.25q-.05,2.55.2,7.8,0,.5-.45,8.25-.1,2.7.2,8,0,.2-.05,1.95A203.781,203.781,0,0,1,14,113q.921-.066,2.4-.15v-.05H28.8l.7.15L49,113q.385.083,3.15.2.56-.155,1.35-.3a40.983,40.983,0,0,1,8.3-.5h5.6q2.4.4,8,.9,7.1.65,11.8.65,2.465,0,14.8-.95a23.718,23.718,0,0,1-1.8-2.15q-2.749-4-3.65-5a92.216,92.216,0,0,0-9.4-8.4Q75.278,84.688,74.5,81.1q-.683-.816-1.45-1.65A97.48,97.48,0,0,0,63.7,70.8a38.994,38.994,0,0,1-4.05-4.2,37.841,37.841,0,0,0-4.35-4.35q-1.9-1.55-4.8-4.2-4.45-4.1-4.55-4.2a35.2,35.2,0,0,1-3.9-4.2Q39.1,46,38.45,45.3A48.384,48.384,0,0,0,34,41.2q-4.05-3.4-5-4.3-1.05-1-4.35-4.35-2.749-2.8-4.35-4.2-3.45-2.8-5.7-4.55Q13.538,22.941,12.75,22.25Z" transform="translate(-12.625 -20.6)"/><path class="c" d="M62.55,165.95a23.439,23.439,0,0,0-3-.2,10.532,10.532,0,0,1,.4,3.15l.2,16.25q0,.7-.4,5t-.4,5.75q0,.251-.05,3.15a35.058,35.058,0,0,0,.25,4.8q.4,2.8.7,4.5.032.238.05.65.857-.906,2-2.1,5.6-5.951,6.55-7.05a48.406,48.406,0,0,1,6.35-5.95l7.6-6.2a44.8,44.8,0,0,0,5.55-6,56.95,56.95,0,0,1,5.4-6.15q1.15-1.05,7.4-6.85,1.866-1.589,3.1-2.45a60.3,60.3,0,0,1-10.05.55l-27.8-.5a25.707,25.707,0,0,1-3.85-.35M168.9,56.55a71.967,71.967,0,0,1-6.4,5.4,35.651,35.651,0,0,0-5.5,5.2q-2.951,3.649-4.4,5.3a141.914,141.914,0,0,1-11.3,10.5,26.294,26.294,0,0,0-4.5,5.15q-3.15,4.549-3.8,5.35a38.02,38.02,0,0,1-5.7,5.05q-4.85,3.55-7.35,5.45A47.242,47.242,0,0,0,114.6,109a50.6,50.6,0,0,1-4.25,4.15,1.883,1.883,0,0,1-.75,1.15q1.1-.04,3.9-.25,4.4-.3,6.5-.4l6.75-.1.45-.1,23.6.45a17.185,17.185,0,0,0,3-.15l11.15-.1q1.1-.049,3.6-.4,1.75-.2,6.85-.3h12q.4.1,3.2.3l9.85.05a.131.131,0,0,0,.05-.05q0-8.419.15-12.85a10.755,10.755,0,0,1,.4-3.25c.036-.136.07-.269.1-.4a18.084,18.084,0,0,1-.55-5.6l.45-8.75q.15-8.15.15-8.65,0-6.1-.4-11.75-.4-5.7-.4-10,0-1.4.6-17.6.15-4.4.65-8.7.3-2.65.35-4.35a5.747,5.747,0,0,0,.1-.75q-.528.655-1.4,1.6a38.184,38.184,0,0,0-3.5,4.2q-2.25,3.3-2.35,3.45a29.038,29.038,0,0,1-2.65,3.3,31.785,31.785,0,0,1-4.3,3.35l-1,.7q-.283.291-.6.6a69.5,69.5,0,0,0-5.25,5.45q-1.061,1.242-2.15,2.65a.4.4,0,0,1-.1.15,33.907,33.907,0,0,0-5.2,5.4A37.456,37.456,0,0,1,168.9,56.55Z" transform="translate(-12.625 -20.6)"/><path class="d" d="M65.2,117.05q-2.047.119-3,.15c-.242.045-.458.078-.65.1q.209,1.812.25,2.8,0,.1.1,3.45.05,2.15.2,3.6l.05,16.25a73.92,73.92,0,0,1-.7,9.85,65.663,65.663,0,0,0-.35,7.1,10.313,10.313,0,0,1-.05,1.1q1.578-.069,4.35-.1l7.4-.05q4.4-.2,8.4-.45H93.6q4.05.3,10.8.35h.2q-.1-2.353-.1-2.4l.5-7.65v-12a44.284,44.284,0,0,1-.2-4.9q.05-8.6.4-12.8,0-1.983.05-3.15a4.588,4.588,0,0,1-.1-.5,13.238,13.238,0,0,1-1.45.1l-1.35-.05q-1.7.15-3.65.15a23.078,23.078,0,0,1-3.65-.15l-17.25-.1Q69.46,117.384,65.2,117.05Z" transform="translate(-12.625 -20.6)"/></svg>